<svg xmlns="http://www.w3.org/2000/svg" version="1.1" viewBox="-5.0 -10.0 110.0 135.0">
 <path d="m90.227 30.277-2.6758 2.668c-0.050781 0.054688-0.14062 0.054688-0.1875 0l-14.891-14.875c-0.050781-0.054687-0.050781-0.14453 0-0.19141l2.6758-2.6797c0.027343-0.035157 0.070312-0.035157 0.09375-0.035157 0.027343 0 0.0625 0 0.09375 0.035157l14.887 14.887c0.050782 0.042968 0.050782 0.13281 0.003906 0.19141zm-10.801 4.582 3.4922-2.6016-10.73-10.727-5.3359 3.5977c-0.20703 0.14453-0.44922 0.22266-0.69922 0.23438l-10.68 0.33594c-3.0039 0.089843-5.5469 1.5469-7.1562 4.082l-7.3164 11.559 15.07-8.6992c0.51953-0.30078 1.1758-0.21484 1.6016 0.20312 0.42578 0.42578 0.51562 1.0859 0.21875 1.6016l-7.75 13.633c-0.44141 0.78516-0.55078 1.6797-0.3125 2.5547s0.80078 1.5938 1.5742 2.0273c1.6133 0.91797 3.6719 0.35938 4.5859-1.2539l4.7617-8.375c1.1914-2.1094 3.6523-3.1055 5.9766-2.4453 2.9023 0.82812 6.4883 1.5703 8.4766-0.078126 0.80078-0.67187 1.4805-1.6367 2.0312-2.9023 0.5-1.1289 1.1953-2.0039 2.1914-2.7461zm-32.16 16.48c0.42578 1.5586 1.4297 2.8477 2.8242 3.6328 0.9375 0.53906 1.9609 0.79688 2.9688 0.79688 2.0938 0 4.1328-1.0977 5.2422-3.0508l4.082-7.1758 4.418 7.6445c-1.8086 1.6367-2.5 4.2148-1.7539 6.5352l-34.961 20.191c-0.80078-0.88672-1.8359-1.5234-3.0156-1.8398-1.1797-0.3125-2.3945-0.28125-3.5312 0.078125l-5.3867-9.3281c0.88281-0.79688 1.5195-1.8398 1.8359-3.0156 0.31641-1.1758 0.28125-2.3984-0.085937-3.5312l28.441-16.422-0.51562 0.90625c-0.78906 1.3945-0.99219 3.0195-0.5625 4.5781zm27.68 6.0977c0.53906 0.94141 0.21875 2.1406-0.71875 2.6797l-42.812 24.719h-9.7148l-11.699-20.27c-0.25781-0.44922-0.32812-0.97656-0.19141-1.4805 0.13672-0.51563 0.45703-0.92969 0.91016-1.1992l26.938-15.547h0.003906l15.512-8.957-2.2266 3.9141-33.395 19.281c-0.30469 0.17969-0.52734 0.47266-0.61719 0.80859-0.09375 0.33594-0.042969 0.70703 0.13281 1.0078 0.48047 0.82812 0.60938 1.8047 0.35938 2.7344-0.25 0.92969-0.84375 1.7031-1.6797 2.1875-0.30469 0.17969-0.52734 0.47266-0.62109 0.80859-0.089844 0.33594-0.042969 0.70703 0.13281 1.0078l6.5742 11.391c0.17578 0.30078 0.46875 0.52734 0.80859 0.61719s0.70312 0.042969 1.0078-0.13281c0.83594-0.48047 1.8047-0.60547 2.7344-0.35937 0.92969 0.24609 1.707 0.83984 2.1875 1.6797 0.24609 0.42578 0.69141 0.66016 1.1523 0.66016 0.22656 0 0.45312-0.054687 0.66406-0.17969l37.012-21.367c0.63672-0.37109 0.85547-1.1758 0.48437-1.8164-0.99219-1.7266-0.39844-3.9336 1.3203-4.9219 0.63672-0.37109 0.85547-1.1758 0.48828-1.8164l-5.5352-9.5859c0.55078-0.26953 1.1992-0.33594 1.8398-0.15625 0.26953 0.078125 0.54688 0.15625 0.82812 0.22266zm17.16-29.234-14.887-14.887c-0.52734-0.51562-1.2266-0.80859-1.9727-0.80859s-1.4453 0.29297-1.9727 0.80859l-2.6758 2.6797c-0.98047 0.98828-1.0742 2.5117-0.28906 3.5977l-4.6211 3.1289-10.293 0.32422c-3.9141 0.125-7.2227 2.0195-9.3164 5.3242l-10.031 15.828-26.66 15.391c-1.0664 0.61719-1.8242 1.6133-2.1484 2.8008-0.32031 1.1992-0.15625 2.4453 0.45703 3.5078l10.934 18.934-10.219 0.003907c-0.73438 0-1.3281 0.59375-1.3281 1.3359 0 0.73047 0.59375 1.3242 1.3281 1.3242h64.609c0.73438 0 1.3281-0.59375 1.3281-1.3242 0-0.73828-0.59375-1.3359-1.3281-1.3359h-36.293l38.832-22.418c1.0625-0.60547 1.8281-1.6016 2.1484-2.8008 0.32031-1.1875 0.15625-2.4336-0.45703-3.4961l-6.9688-12.066c2.3984 0.26953 4.7969 0.011718 6.6211-1.5039 1.1172-0.92969 2.0508-2.2305 2.7656-3.8789 0.30859-0.70703 0.72266-1.2227 1.3398-1.6797l3.8047-2.8242 0.66797 0.66016c0.54297 0.55078 1.2578 0.81641 1.9727 0.81641s1.4297-0.26953 1.9688-0.81641l2.6797-2.6797c1.0898-1.0859 1.0898-2.8594 0.003907-3.9453zm-47.793 35.984c1.7539-1.0078 2.3594-3.2617 1.3477-5.0234-1.0156-1.75-3.2695-2.3555-5.0234-1.3438-0.85156 0.49219-1.4609 1.2891-1.7109 2.2305-0.25391 0.95312-0.125 1.9375 0.36719 2.793 0.49219 0.85156 1.2852 1.4688 2.2344 1.7148 0.94141 0.25391 1.9336 0.12109 2.7852-0.37109zm-5.0078-8.668c-1.4648 0.85156-2.5117 2.207-2.9492 3.8438s-0.21484 3.3398 0.63281 4.8086c0.84766 1.4688 2.2109 2.5117 3.8477 2.9492 0.54687 0.14453 1.1016 0.22266 1.6484 0.22266 1.0977 0 2.1797-0.29297 3.1562-0.85156 3.0234-1.75 4.0664-5.6289 2.3164-8.6523-1.7461-3.0234-5.625-4.0664-8.6523-2.3203z" fill-rule="evenodd"/>
<text x="0.0" y="117.5" font-size="5.0" font-weight="bold" font-family="Arbeit Regular, Helvetica, Arial-Unicode, Arial, Sans-serif" fill="#000000">Created by gravisio</text><text x="0.0" y="122.5" font-size="5.0" font-weight="bold" font-family="Arbeit Regular, Helvetica, Arial-Unicode, Arial, Sans-serif" fill="#000000">from Noun Project</text></svg>