<svg width="38" height="28" viewBox="0 0 38 28" fill="none" xmlns="http://www.w3.org/2000/svg">
<path d="M11.4133 7.43164C11.7972 7.43164 12.1084 7.73987 12.1084 8.12017V9.85332H13.8581C14.242 9.85332 14.5533 10.1616 14.5533 10.5418C14.5533 10.9221 14.242 11.2304 13.8581 11.2304H12.1084V12.9633C12.1084 13.3435 11.7972 13.6518 11.4133 13.6518C11.0294 13.6518 10.7182 13.3435 10.7182 12.9633V11.2304H8.96856C8.58467 11.2304 8.27344 10.9221 8.27344 10.5418C8.27344 10.1616 8.58467 9.85332 8.96856 9.85332H10.7182V8.12017C10.7182 7.73987 11.0294 7.43164 11.4133 7.43164Z" fill="black"/>
<path d="M28.0922 8.02823C28.0922 7.33415 27.5242 6.77148 26.8234 6.77148C26.1227 6.77148 25.5547 7.33415 25.5547 8.02823C25.5547 8.7223 26.1227 9.28497 26.8234 9.28497C27.5242 9.28497 28.0922 8.7223 28.0922 8.02823Z" fill="black"/>
<path d="M26.8234 11.7969C27.5242 11.7969 28.0922 12.3595 28.0922 13.0536C28.0922 13.7476 27.5242 14.3103 26.8234 14.3103C26.1227 14.3103 25.5547 13.7476 25.5547 13.0536C25.5547 12.3595 26.1227 11.7969 26.8234 11.7969Z" fill="black"/>
<path d="M25.4438 10.5419C25.4438 9.84782 24.8757 9.28516 24.175 9.28516C23.4743 9.28516 22.9062 9.84782 22.9062 10.5419C22.9062 11.236 23.4743 11.7986 24.175 11.7986C24.8757 11.7986 25.4438 11.236 25.4438 10.5419Z" fill="black"/>
<path d="M29.3625 9.28516C30.0633 9.28516 30.6313 9.84782 30.6313 10.5419C30.6313 11.236 30.0633 11.7986 29.3625 11.7986C28.6618 11.7986 28.0938 11.236 28.0938 10.5419C28.0938 9.84782 28.6618 9.28516 29.3625 9.28516Z" fill="black"/>
<path fill-rule="evenodd" clip-rule="evenodd" d="M4.69359 8.65577C5.39743 4.83923 8.75454 2.06641 12.6714 2.06641H26.2192C30.1269 2.06641 33.4789 4.82661 34.1925 8.63208L36.4544 20.6927C37.0102 23.6565 34.7137 26.3926 31.6703 26.3926H31.3812C29.124 26.3926 27.1632 24.855 26.6452 22.6789L25.8278 19.245C25.6058 18.3124 24.7655 17.6534 23.7981 17.6534H15.1109C14.1555 17.6534 13.3223 18.2965 13.0888 19.2142L12.1889 22.7508C11.6441 24.892 9.69991 26.3926 7.47061 26.3926H7.2579C4.22045 26.3926 1.92543 23.6665 2.47124 20.7069L4.69359 8.65577ZM12.6714 3.44346C9.42598 3.44346 6.64438 5.74097 6.06122 8.90323L3.83887 20.9543C3.449 23.0683 5.08828 25.0155 7.2579 25.0155H7.47061C9.06294 25.0155 10.4517 23.9437 10.8408 22.4142L11.7407 18.8776C12.1299 17.3482 13.5185 16.2764 15.1109 16.2764H23.7981C25.4104 16.2764 26.811 17.3746 27.181 18.929L27.9983 22.3629C28.3683 23.9173 29.7689 25.0155 31.3812 25.0155H31.6703C33.8442 25.0155 35.4845 23.0612 35.0875 20.9442L32.8257 8.88358C32.2343 5.73046 29.457 3.44346 26.2192 3.44346H12.6714Z" fill="black"/>
</svg>
