<svg width="21" height="21" viewBox="0 0 21 21" fill="none" xmlns="http://www.w3.org/2000/svg">
<path d="M18.3971 11.5834C18.1653 11.5834 17.9229 11.5095 17.6911 11.4566C17.2216 11.3529 16.7602 11.2151 16.3106 11.0444C15.8218 10.8661 15.2844 10.8753 14.8019 11.0705C14.3195 11.2656 13.926 11.6327 13.6972 12.1013L13.4654 12.5769C12.439 12.0043 11.4959 11.293 10.6624 10.4632C9.83489 9.62722 9.12575 8.68132 8.55479 7.65195L8.99738 7.35603C9.46459 7.1266 9.83069 6.73199 10.0252 6.24812C10.2198 5.76425 10.229 5.22532 10.0512 4.73503C9.88384 4.28315 9.74655 3.82064 9.64018 3.35056C9.58749 3.11805 9.54534 2.87497 9.51373 2.6319C9.38576 1.88747 8.99698 1.21333 8.4174 0.730873C7.83781 0.248417 7.10552 -0.0106466 6.35238 0.000335342H3.19103C2.73688 -0.00394125 2.28715 0.0899706 1.87244 0.275678C1.45774 0.461385 1.0878 0.734527 0.787806 1.07651C0.487815 1.41849 0.264818 1.82129 0.133994 2.25747C0.00317051 2.69365 -0.0324075 3.15299 0.0296821 3.6042C0.591073 8.03176 2.60727 12.1456 5.75979 15.2958C8.91231 18.446 13.0215 20.4531 17.4382 21H17.8386C18.6157 21.0011 19.366 20.7152 19.9462 20.1968C20.2796 19.8977 20.5459 19.5312 20.7275 19.1212C20.9092 18.7113 21.002 18.2674 21 17.8189V14.6483C20.9871 13.9142 20.7205 13.2073 20.2458 12.6484C19.7711 12.0894 19.1177 11.713 18.3971 11.5834ZM18.924 17.9246C18.9238 18.0746 18.8918 18.2229 18.83 18.3596C18.7682 18.4962 18.6781 18.6182 18.5657 18.7172C18.448 18.8192 18.3103 18.8953 18.1615 18.9408C18.0127 18.9863 17.8561 19.0001 17.7016 18.9814C13.7551 18.4739 10.0893 16.6632 7.28257 13.8348C4.4758 11.0065 2.68776 7.32151 2.20048 3.36113C2.1837 3.20632 2.1984 3.0497 2.24368 2.90075C2.28896 2.7518 2.36389 2.6136 2.46392 2.49451C2.56267 2.38177 2.68423 2.29142 2.8205 2.22947C2.95677 2.16751 3.10464 2.13537 3.25426 2.13518H6.41561C6.66066 2.12971 6.89995 2.21009 7.09229 2.36248C7.28462 2.51486 7.41798 2.72973 7.46939 2.97009C7.51154 3.25896 7.56423 3.54431 7.62746 3.82614C7.74919 4.38326 7.9112 4.93074 8.1122 5.46426L6.6369 6.15122C6.51076 6.20926 6.39729 6.29172 6.30302 6.39387C6.20874 6.49601 6.13551 6.61583 6.08753 6.74643C6.03956 6.87704 6.01777 7.01586 6.02344 7.15493C6.02911 7.29401 6.06211 7.43058 6.12055 7.55683C7.63715 10.8148 10.2485 13.4338 13.497 14.9548C13.7536 15.0605 14.0413 15.0605 14.2979 14.9548C14.4293 14.9077 14.5501 14.8348 14.6532 14.7405C14.7563 14.6461 14.8397 14.5322 14.8986 14.4052L15.5519 12.9256C16.0967 13.121 16.6527 13.2834 17.2169 13.4118C17.4979 13.4752 17.7824 13.528 18.0704 13.5703C18.3101 13.6219 18.5244 13.7556 18.6763 13.9485C18.8282 14.1414 18.9084 14.3814 18.9029 14.6272L18.924 17.9246Z" fill="#898989"/>
</svg>
