<svg width="36" height="34" viewBox="0 0 36 34" fill="none" xmlns="http://www.w3.org/2000/svg">
<path d="M9.35106 23.3597H12.5045C13.124 23.3597 13.629 23.8627 13.629 24.4798V24.5886C18.2906 22.0577 16.4976 23.6112 20.9477 23.767C21.9709 23.8044 23.0509 23.8166 24.0242 23.9672C25.3541 24.1717 26.3991 24.6234 26.5678 25.6573L29.4512 25.2726L32.9804 22.828C33.6916 22.2832 34.4465 22.2483 35.0258 22.5147C35.5414 22.754 35.9005 23.2327 35.9817 23.7975C36.0805 24.4711 35.7886 25.2805 34.8624 25.968L29.1139 30.2307C29.0641 30.2682 29.0126 30.2951 28.9575 30.3099L21.8739 32.6632C21.8049 32.6876 21.7323 32.6954 21.6633 32.6902L15.0672 32.1106L13.6282 32.1941V32.8799C13.6282 33.497 13.1231 34 12.5036 34H9.35019C8.75865 34 8.26759 33.5387 8.22827 32.9565L0.589793 33.5779C0.265625 33.6127 0 33.3682 0 33.0601V24.3884H0.0026212C0.0026212 24.0847 0.263004 23.8453 0.567075 23.868L8.22565 24.492C8.22652 23.8584 8.72981 23.3597 9.35106 23.3597ZM13.629 25.7774V31.1506L15.1275 31.0671L21.6493 31.6415L28.56 29.3448L34.2395 25.1308C34.8091 24.7087 34.997 24.277 34.9481 23.9446C34.859 23.3449 34.111 23.2361 33.6252 23.646L29.9475 26.1969C29.8828 26.2439 29.8042 26.2735 29.7195 26.2857L26.3956 26.7295C25.8731 27.7112 24.3668 27.8078 22.0146 27.9584C21.4798 27.9932 20.8953 28.0297 20.2137 28.0863C19.9236 28.1089 19.6711 27.894 19.6493 27.6077C19.6266 27.3187 19.8424 27.0672 20.1325 27.0454C20.7537 26.9958 21.3785 26.9541 21.9482 26.9192C24.0732 26.7835 25.3559 26.6999 25.5149 26.1368C25.5227 26.1099 25.5324 26.0846 25.542 26.0603C25.5594 25.4284 24.8237 25.143 23.8678 24.9941C22.9661 24.8532 21.8643 24.841 20.9128 24.807C16.1498 24.6399 18.4933 23.1178 13.629 25.7774ZM12.5045 24.4032H9.35106C9.31174 24.4032 9.27417 24.438 9.27417 24.4798V32.8799C9.27417 32.9243 9.31349 32.9565 9.35106 32.9565H12.5045C12.5438 32.9565 12.5788 32.9217 12.5788 32.8799V24.4798C12.5788 24.438 12.5438 24.4032 12.5045 24.4032ZM8.22652 25.5407L1.05114 24.9558V32.4953L8.22652 31.9104V25.5407ZM20.1797 9.38705C21.7996 10.186 21.6537 12.5375 19.9595 13.1389C18.8944 13.5166 17.7183 12.9614 17.339 11.9005C16.9598 10.8396 17.5173 9.6699 18.5824 9.29306C19.0656 9.12074 19.6126 9.13032 20.1159 9.35746C20.1377 9.36443 20.1604 9.37487 20.1797 9.38705ZM20.378 10.8222C20.0259 9.83526 18.6514 9.77869 18.2058 10.7108C17.7602 11.6481 18.6768 12.6698 19.665 12.3191C20.2793 12.1006 20.5956 11.4323 20.378 10.8222ZM16.7396 2.94771C18.3814 3.72227 18.2705 6.10515 16.5518 6.71523C15.4867 7.09555 14.3123 6.5403 13.934 5.47941C13.5521 4.41851 14.1096 3.24883 15.1747 2.86938C15.6675 2.69358 16.2294 2.70576 16.7396 2.94771ZM16.9721 4.39849C16.6182 3.41157 15.2429 3.35762 14.7999 4.28971C14.3543 5.22702 15.2708 6.24875 16.2591 5.89541C16.8707 5.67871 17.1905 5.01032 16.9721 4.39849ZM19.3819 3.18008C19.4833 2.96337 19.7437 2.86938 19.9612 2.97294C20.1788 3.0739 20.2705 3.33325 20.1692 3.54995L15.8825 12.5567C15.7785 12.7734 15.5181 12.8674 15.3005 12.7638C15.0847 12.6629 14.9912 12.4035 15.0926 12.1868L19.3819 3.18008ZM17.5671 0C22.0058 0 25.6023 3.58476 25.6023 8.00502C25.6023 9.06852 25.3943 10.085 25.0151 11.0145L28.5512 17.4539C28.7566 17.802 28.4647 18.1692 28.1205 18.1196L25.2571 17.6906L24.0784 20.318C23.9325 20.6435 23.472 20.6661 23.2981 20.3502L20.5912 15.4208C18.6593 16.2032 16.4749 16.2032 14.543 15.4208L11.8361 20.3502C11.663 20.6661 11.2017 20.6435 11.0584 20.318L9.87707 17.6906L7.01373 18.1196C6.66947 18.1692 6.37501 17.8011 6.58296 17.4539L10.12 11.0154C8.8967 8.01546 9.61931 4.60389 11.8859 2.34372C13.3389 0.895538 15.3477 0 17.5671 0ZM24.5494 11.9701C23.8041 13.2703 22.704 14.3408 21.3811 15.051L23.6398 19.1684L24.5983 17.0344C24.6804 16.8542 24.8709 16.7559 25.0588 16.7829L27.3795 17.1284L24.5494 11.9701ZM13.7522 15.051C12.4293 14.3408 11.3301 13.2695 10.5839 11.9701L7.75294 17.1284L10.0737 16.7829C10.2615 16.7559 10.4529 16.8542 10.5341 17.0344L11.4927 19.1684L13.7522 15.051ZM22.6323 2.95989C19.8337 0.17493 15.2988 0.17493 12.5019 2.95989C9.70494 5.74485 9.70581 10.2626 12.5019 13.0475C15.2979 15.8351 19.8337 15.8351 22.6323 13.0475C25.4284 10.2626 25.4284 5.74572 22.6323 2.95989Z" fill="black"/>
</svg>
