<?xml version="1.0" standalone="no"?>
<!DOCTYPE svg PUBLIC "-//W3C//DTD SVG 20010904//EN"
 "http://www.w3.org/TR/2001/REC-SVG-20010904/DTD/svg10.dtd">
<svg version="1.0" xmlns="http://www.w3.org/2000/svg"
 width="480.000000pt" height="500.000000pt" viewBox="0 0 480.000000 500.000000"
 preserveAspectRatio="xMidYMid meet">

<g transform="translate(0.000000,500.000000) scale(0.100000,-0.100000)"
fill="#000000" stroke="none">
<path d="M2095 4544 c-88 -9 -88 -9 -82 -65 9 -70 33 -115 73 -134 29 -14 38
-14 61 -3 15 7 29 22 31 32 4 18 3 19 -13 3 -54 -54 -116 33 -66 94 36 45 129
21 152 -39 39 -100 -70 -212 -178 -183 -21 6 -49 18 -61 27 -23 16 -25 15 -51
-13 -44 -49 -77 -65 -131 -66 -118 -2 -191 133 -111 205 30 27 62 35 96 22 22
-9 47 -61 40 -85 -14 -44 -84 -49 -86 -6 -1 18 -2 19 -6 4 -6 -25 24 -57 54
-57 14 0 38 13 54 29 24 25 29 38 29 79 0 69 -17 112 -43 112 -92 0 -517 -162
-517 -197 0 -26 39 -90 70 -117 20 -16 43 -26 63 -26 38 0 50 7 66 37 17 33
13 39 -9 15 -39 -42 -100 -16 -100 42 0 42 41 76 91 76 118 0 138 -179 27
-245 -23 -14 -52 -19 -96 -20 l-63 0 -18 -40 c-37 -82 -113 -119 -193 -94 -51
17 -88 66 -88 116 0 45 46 93 87 93 34 0 73 -36 73 -67 0 -30 -29 -56 -56 -50
-13 2 -21 0 -18 -4 10 -16 70 -10 87 9 31 34 32 77 3 136 -40 83 -45 84 -114
37 -146 -99 -372 -298 -372 -328 0 -36 100 -103 154 -103 49 0 88 60 62 95
-13 18 -14 18 -9 -7 4 -20 -1 -30 -22 -44 -25 -16 -27 -16 -53 3 -46 34 -42
102 8 128 43 22 84 19 119 -10 90 -76 44 -224 -79 -256 -44 -11 -50 -16 -50
-38 0 -44 -20 -99 -46 -131 -74 -87 -234 -47 -234 60 0 51 31 90 74 90 66 0
99 -56 55 -96 -18 -16 -23 -16 -42 -4 -20 12 -21 12 -8 -3 19 -24 54 -21 79 6
42 45 21 116 -50 167 -22 17 -46 30 -53 30 -29 0 -285 -435 -285 -485 0 -20
86 -55 135 -55 35 0 52 6 70 25 28 28 32 66 9 89 -21 22 -27 20 -12 -3 19 -32
-4 -71 -42 -71 -67 0 -95 83 -45 133 38 37 70 41 120 17 105 -51 100 -207 -8
-265 -26 -14 -35 -25 -31 -35 4 -8 11 -34 17 -57 12 -51 -11 -122 -50 -153
-86 -68 -203 -27 -203 71 0 49 28 79 73 79 36 0 67 -25 67 -53 0 -8 -12 -25
-26 -36 -31 -24 -10 -29 24 -5 16 11 22 25 22 54 0 47 -42 94 -98 110 -73 20
-77 18 -100 -67 -40 -149 -72 -344 -72 -439 0 -48 9 -54 75 -54 54 0 87 12
114 41 33 36 24 109 -13 109 -6 0 -5 -5 2 -12 19 -19 14 -55 -10 -72 -30 -21
-50 -20 -82 5 -20 16 -26 29 -26 59 0 56 33 91 90 97 133 13 201 -157 103
-259 l-26 -27 31 -35 c105 -119 -13 -311 -148 -241 -57 30 -70 108 -24 144 32
25 52 26 82 5 28 -20 28 -57 -1 -78 -19 -14 -20 -15 -2 -9 53 16 60 75 15 118
-26 25 -40 30 -93 32 -93 6 -93 6 -79 -139 12 -123 35 -249 68 -365 19 -69 25
-72 96 -53 56 16 98 63 98 110 0 40 -26 71 -60 69 -9 0 -7 -4 8 -11 55 -27 30
-98 -35 -98 -45 0 -73 30 -73 79 0 130 184 143 241 18 22 -49 23 -78 5 -129
l-13 -37 39 -26 c51 -34 78 -79 78 -133 0 -65 -26 -111 -75 -133 -48 -21 -79
-16 -118 19 -33 32 -37 82 -7 112 22 22 69 27 88 8 16 -16 15 -50 -1 -68 -6
-8 -2 -6 11 4 52 44 6 116 -73 116 -48 0 -135 -34 -135 -54 0 -26 122 -259
187 -356 92 -139 93 -139 143 -106 49 32 80 80 80 122 0 58 -68 97 -101 57
-13 -15 -12 -15 8 -3 19 12 24 12 42 -4 26 -24 27 -50 1 -76 -48 -48 -130 -6
-130 68 0 72 62 120 142 109 76 -10 124 -66 135 -156 3 -28 11 -51 17 -51 33
0 86 -24 114 -51 109 -107 12 -291 -118 -224 -50 26 -54 94 -8 128 25 19 28
19 52 3 26 -16 33 -43 19 -62 -5 -5 0 -1 10 10 33 36 -8 96 -67 96 -41 0 -122
-51 -138 -86 -12 -26 -9 -30 72 -107 94 -89 201 -177 293 -239 l60 -41 19 24
c29 36 58 101 58 131 0 37 -39 81 -73 81 -28 -1 -57 -18 -57 -35 0 -5 7 -2 16
6 20 20 38 20 58 0 23 -22 20 -57 -7 -82 -33 -31 -72 -28 -109 8 -28 28 -30
35 -25 78 12 112 160 148 244 59 17 -17 35 -45 40 -62 10 -29 12 -30 62 -27
91 6 175 -54 182 -128 5 -55 -2 -80 -32 -109 -75 -76 -203 2 -143 87 19 28 57
28 84 0 26 -29 26 -8 -1 26 -42 53 -125 22 -169 -65 -11 -21 -20 -45 -20 -52
0 -24 216 -116 394 -168 149 -44 151 -43 162 55 9 78 -26 136 -84 136 -25 0
-55 -34 -49 -57 4 -15 5 -14 6 4 2 43 72 38 86 -6 9 -29 -21 -80 -52 -87 -85
-22 -151 90 -97 163 37 49 70 67 123 66 55 -1 109 -28 135 -68 l16 -24 55 25
c44 20 64 24 96 19 67 -11 129 -79 129 -140 0 -91 -118 -149 -165 -82 -44 62
19 142 70 90 16 -16 17 -15 13 3 -2 10 -16 25 -31 32 -23 11 -32 11 -61 -3
-40 -19 -64 -64 -73 -134 -5 -48 -5 -50 23 -58 38 -10 490 -10 528 0 28 8 28
9 22 60 -10 73 -32 113 -72 132 -29 14 -38 14 -61 3 -15 -7 -29 -22 -31 -33
-2 -18 -2 -19 8 -2 14 21 53 22 74 1 41 -40 4 -118 -56 -118 -70 0 -114 53
-105 126 6 48 33 83 83 108 52 26 78 25 139 -4 l50 -23 37 38 c85 87 216 65
258 -45 22 -58 -29 -136 -89 -136 -59 0 -96 60 -66 106 18 28 47 31 69 8 9 -8
16 -11 16 -6 0 16 -36 42 -59 42 -12 0 -36 -13 -52 -29 -24 -25 -29 -38 -29
-79 0 -70 17 -112 45 -112 86 0 515 164 515 197 0 26 -39 90 -70 117 -50 42
-119 32 -134 -19 -3 -11 -1 -27 5 -35 9 -13 10 -12 5 2 -13 43 61 65 88 26 38
-54 -2 -118 -75 -118 -33 0 -47 6 -69 30 -94 100 13 257 159 234 39 -6 40 -5
56 32 40 97 128 137 212 97 43 -20 73 -66 73 -111 0 -44 -46 -92 -87 -92 -58
0 -94 67 -57 104 20 20 38 20 58 0 9 -8 16 -11 16 -6 0 17 -29 34 -57 34 -35
1 -73 -43 -73 -84 0 -35 20 -80 53 -122 l24 -29 60 41 c141 96 373 301 373
330 0 32 -100 102 -146 102 -57 0 -98 -57 -70 -95 13 -18 14 -18 9 7 -4 20 1
30 22 44 25 16 27 16 53 -3 67 -50 23 -143 -68 -143 -61 0 -120 85 -106 152
14 71 89 138 154 138 19 0 22 6 22 38 0 46 36 119 71 145 34 25 101 33 139 17
68 -28 92 -114 45 -164 -29 -32 -76 -35 -105 -6 -26 26 -25 52 1 76 18 16 23
16 42 4 20 -12 21 -12 8 3 -33 40 -101 1 -101 -57 0 -42 31 -90 80 -122 34
-23 42 -25 56 -13 49 41 274 431 274 475 0 20 -86 54 -135 54 -35 0 -52 -6
-70 -25 -28 -28 -32 -66 -9 -89 21 -22 27 -20 12 3 -19 32 4 71 42 71 69 0 95
-83 41 -134 -17 -17 -40 -28 -59 -28 -79 -2 -132 54 -132 138 0 60 25 104 78
139 l39 26 -14 42 c-29 83 5 164 83 199 82 36 164 -11 164 -93 0 -49 -28 -79
-73 -79 -65 0 -90 71 -35 98 13 6 17 11 10 11 -24 2 -53 -20 -63 -45 -21 -58
45 -128 134 -140 l45 -6 31 130 c33 137 60 314 61 395 0 52 3 50 -85 47 -81
-3 -125 -36 -125 -94 0 -25 23 -56 41 -56 6 0 3 7 -5 16 -23 23 -20 51 9 70
45 29 105 -7 105 -63 0 -45 -14 -69 -50 -88 -41 -21 -82 -19 -121 8 -82 54
-91 170 -19 245 l22 24 -25 26 c-98 102 -30 272 103 259 57 -6 90 -41 90 -96
0 -40 -18 -63 -57 -75 -46 -14 -85 32 -63 74 7 13 7 20 1 20 -6 0 -15 -9 -21
-19 -36 -68 24 -131 125 -131 65 0 75 7 75 51 0 74 -31 274 -62 397 l-31 124
-44 -6 c-85 -11 -133 -54 -135 -117 -1 -34 29 -69 59 -69 11 0 7 7 -11 21 -14
11 -26 28 -26 38 0 47 82 69 120 31 25 -25 27 -86 4 -119 -26 -36 -77 -54
-123 -41 -55 14 -87 43 -107 96 -17 45 -14 89 11 147 5 11 3 17 -5 17 -21 0
-79 49 -95 80 -22 42 -19 116 5 155 23 37 90 69 124 59 11 -3 33 -18 49 -32
33 -32 37 -82 7 -112 -22 -22 -69 -27 -88 -8 -16 16 -15 50 1 68 6 8 2 6 -10
-4 -53 -44 -7 -116 72 -116 49 0 135 34 135 54 0 44 -225 436 -273 475 -15 12
-22 10 -57 -13 -76 -50 -103 -134 -58 -176 23 -21 63 -27 73 -10 3 6 -1 7 -10
4 -20 -8 -55 23 -55 48 0 54 82 76 125 33 51 -50 21 -144 -55 -166 -102 -31
-200 52 -200 171 0 22 -7 28 -44 38 -129 34 -176 179 -85 256 35 30 76 33 119
11 50 -26 54 -94 8 -128 -26 -19 -28 -19 -53 -3 -21 14 -26 24 -22 44 5 25 4
25 -9 7 -20 -27 -18 -42 11 -70 26 -27 71 -33 108 -14 31 16 97 81 97 95 0 27
-236 233 -373 326 l-60 41 -24 -29 c-56 -70 -67 -133 -32 -178 15 -19 30 -26
54 -26 19 0 37 5 40 10 4 7 -2 9 -18 5 -52 -13 -76 53 -34 93 33 31 72 28 108
-7 54 -54 31 -138 -47 -173 -83 -36 -166 0 -206 90 -19 43 -20 43 -58 37 -82
-14 -169 37 -189 112 -13 48 -4 88 29 123 37 40 99 42 135 5 46 -45 23 -115
-38 -115 -28 0 -53 32 -41 52 4 7 3 8 -4 4 -18 -11 -15 -30 9 -60 42 -53 125
-22 169 65 11 21 20 45 20 52 0 9 -45 35 -112 65 -152 67 -178 76 -308 111
l-111 30 -15 -34 c-8 -19 -14 -57 -14 -85 0 -44 5 -56 29 -81 16 -16 40 -29
54 -29 28 0 57 28 57 56 0 16 -2 15 -13 -6 -16 -33 -41 -36 -67 -10 -26 26
-21 65 12 93 68 57 171 -38 135 -125 -37 -89 -145 -119 -227 -63 -19 14 -41
34 -48 45 -12 20 -13 20 -50 2 -83 -42 -145 -35 -201 22 -77 79 -37 200 67
200 41 0 72 -32 72 -74 0 -52 -51 -78 -84 -44 -13 13 -16 13 -16 1 0 -35 60
-51 103 -28 34 18 54 57 62 122 6 49 5 57 -12 64 -20 8 -414 15 -478 9z m560
-377 c600 -135 1078 -565 1265 -1135 64 -197 74 -273 74 -532 0 -259 -10 -334
-75 -531 -204 -624 -759 -1080 -1412 -1160 -140 -17 -424 -6 -547 20 -677 147
-1183 654 -1332 1332 -20 92 -23 132 -23 339 0 206 3 248 23 337 156 712 698
1230 1412 1348 61 10 145 13 295 10 178 -3 227 -7 320 -28z"/>
<path d="M2110 4139 c-186 -21 -361 -74 -545 -165 -172 -85 -295 -174 -436
-315 -392 -392 -557 -954 -443 -1507 39 -190 152 -443 271 -612 87 -122 262
-296 383 -382 116 -83 323 -186 450 -226 429 -135 854 -102 1255 99 160 79
286 171 420 304 237 237 384 513 457 860 19 93 23 140 23 305 0 216 -17 333
-75 513 -41 126 -146 333 -227 447 -88 122 -262 297 -383 382 -331 235 -748
342 -1150 297z m473 -48 c465 -84 869 -363 1109 -766 275 -462 300 -1027 67
-1524 -145 -309 -426 -592 -746 -751 -413 -205 -911 -221 -1333 -43 -729 308
-1130 1084 -955 1853 68 301 210 556 434 781 269 269 595 425 977 469 110 12
323 3 447 -19z"/>
<path d="M2192 4063 l-33 -27 -50 19 -50 18 -35 -34 c-34 -33 -34 -34 -13 -41
12 -5 27 -7 33 -4 6 2 3 5 -6 5 -23 1 -23 13 0 41 l18 23 55 -21 c87 -33 96
-35 79 -23 -12 8 -11 14 9 35 l24 25 71 -36 c93 -46 99 -52 84 -70 -10 -12 -7
-12 15 -2 l27 12 -40 24 c-22 13 -40 27 -40 30 0 9 34 32 48 33 13 0 70 -35
130 -79 l33 -25 -23 -12 c-13 -7 -18 -13 -13 -13 6 0 21 6 34 13 23 13 24 14
5 25 -10 6 -28 18 -39 26 -20 16 -20 16 5 36 l25 20 -33 -16 c-32 -15 -34 -15
-76 14 l-43 30 -37 -25 -37 -25 -46 25 c-25 14 -46 26 -47 26 0 -1 -16 -13
-34 -27z"/>
<path d="M2595 4027 c27 -23 63 -54 80 -69 l30 -27 -25 -11 c-24 -10 -24 -10
5 -4 16 3 32 7 33 9 2 2 -11 17 -30 34 -32 30 -32 32 -14 46 22 17 14 20 -14
5 -15 -8 -27 -3 -60 25 -23 19 -45 35 -48 35 -4 -1 15 -20 43 -43z"/>
<path d="M1876 4013 l-17 -28 19 22 c17 19 24 21 53 13 48 -14 60 -11 19 5
-50 19 -56 18 -74 -12z"/>
<path d="M2710 4022 c24 -11 141 -138 133 -145 -3 -4 2 -7 12 -7 19 0 16 5
-33 58 -7 7 -10 18 -7 23 4 5 0 9 -7 9 -8 0 -29 16 -48 35 -19 19 -41 35 -49
34 -14 0 -14 -1 -1 -7z"/>
<path d="M2224 3997 c16 -12 10 -18 -61 -65 -44 -29 -84 -52 -90 -52 -6 0 -17
7 -24 16 -11 14 -8 21 23 49 33 31 34 34 15 39 -12 3 -23 3 -26 1 -2 -3 1 -5
7 -5 7 0 12 -4 12 -9 0 -10 -135 -121 -148 -121 -4 0 -17 6 -28 14 -18 14 -18
16 15 50 l34 35 -27 7 c-15 3 -30 4 -33 0 -4 -3 3 -6 15 -6 12 0 22 -3 22 -8
0 -4 -31 -39 -70 -77 -38 -38 -67 -71 -65 -74 3 -2 23 13 45 34 37 36 40 37
70 25 29 -12 33 -11 70 19 44 35 52 37 70 16 18 -21 38 -19 76 10 39 30 38 30
72 5 l28 -21 46 26 46 26 25 -27 26 -27 48 21 48 22 25 -29 c19 -22 30 -27 45
-20 19 7 19 8 -1 8 -27 1 -48 26 -40 47 4 11 2 14 -6 11 -120 -48 -117 -47
-133 -31 -18 19 -19 26 -2 43 6 7 -20 -3 -59 -23 -68 -33 -72 -34 -88 -17 -22
24 -21 27 20 55 34 23 35 25 16 35 -28 15 -40 14 -18 -2z"/>
<path d="M1726 3974 c-5 -13 -3 -14 6 -6 9 7 29 7 58 2 54 -11 96 -12 87 -4
-3 4 -19 8 -34 10 -15 1 -47 5 -69 9 -33 5 -43 3 -48 -11z"/>
<path d="M2866 3974 c14 -6 128 -153 123 -158 -2 -2 -47 -6 -100 -10 -94 -7
-95 -7 -107 18 -13 28 -8 36 27 37 14 1 19 3 11 5 -8 2 -35 0 -60 -5 -25 -5
-35 -9 -23 -10 14 -1 28 -12 39 -32 l16 -31 93 6 c128 8 131 10 98 53 -22 29
-24 36 -12 44 11 7 9 9 -8 9 -13 0 -34 16 -53 40 -17 22 -37 40 -43 39 -9 0
-9 -2 -1 -5z"/>
<path d="M1703 3936 c-5 -10 -29 -16 -67 -18 -43 -2 -61 -7 -63 -18 -4 -13 -3
-13 5 -1 8 11 29 13 102 8 51 -3 95 -8 98 -11 4 -5 -12 -28 -98 -137 -13 -17
-20 -18 -43 -10 -24 9 -26 14 -17 31 24 44 -1 16 -36 -41 -21 -34 -47 -65 -59
-69 -20 -9 -20 -9 2 -9 15 -1 29 12 48 45 15 25 32 44 38 41 51 -19 55 -18 87
23 28 35 37 40 59 35 25 -6 25 -6 6 8 -19 14 -19 15 8 50 15 20 27 38 27 41 0
3 -19 6 -42 8 -34 2 -43 7 -42 21 2 21 -2 22 -13 3z"/>
<path d="M2593 3899 c-38 -11 -45 -22 -8 -13 15 4 32 1 42 -7 14 -12 16 -12 9
0 -5 8 -3 17 5 22 19 12 -4 11 -48 -2z"/>
<path d="M3007 3903 c14 -3 36 -26 58 -64 35 -57 50 -75 39 -44 -4 9 0 15 7
16 8 0 4 4 -8 9 -12 5 -32 27 -45 49 -18 32 -29 41 -48 40 -23 -2 -23 -2 -3
-6z"/>
<path d="M1552 3860 c-12 -19 -10 -20 39 -20 44 0 50 -2 45 -17 -5 -15 -3 -14
9 2 15 19 14 20 -34 23 -39 2 -49 6 -44 18 8 20 0 17 -15 -6z"/>
<path d="M2164 3849 c-305 -29 -606 -173 -826 -396 -257 -260 -392 -590 -391
-953 1 -380 148 -721 422 -982 540 -514 1390 -493 1912 49 184 191 302 423
355 698 26 133 24 368 -5 502 -125 592 -607 1023 -1210 1083 -113 11 -138 11
-257 -1z m426 -57 c254 -62 463 -178 642 -355 194 -192 326 -445 372 -712 21
-116 21 -334 0 -449 -97 -556 -528 -984 -1088 -1081 -115 -19 -317 -19 -437 1
-412 69 -775 338 -963 712 -51 102 -102 259 -121 372 -19 122 -19 318 0 440
59 359 273 686 580 885 169 111 315 166 545 209 14 2 106 3 205 2 142 -2 198
-7 265 -24z"/>
<path d="M2160 3765 c-8 -2 -49 -9 -90 -15 -169 -28 -383 -121 -529 -230 -325
-245 -511 -616 -511 -1020 0 -343 126 -647 369 -891 190 -191 391 -300 651
-356 117 -25 382 -25 496 0 168 36 330 104 470 197 97 65 273 241 336 336 292
440 292 986 0 1429 -61 92 -248 279 -342 340 -222 145 -463 216 -720 214 -63
-1 -122 -3 -130 -4z m356 -40 c508 -89 920 -501 1009 -1009 19 -114 19 -318 0
-432 -45 -253 -160 -470 -349 -660 -243 -243 -533 -364 -872 -364 -345 0 -638
121 -880 364 -245 246 -364 532 -364 876 0 332 112 614 339 852 201 212 432
332 731 381 67 11 304 6 386 -8z"/>
<path d="M2281 3642 c-1 -55 -3 -63 -18 -60 -14 2 -19 15 -21 56 -2 29 -8 52
-14 52 -7 0 -9 -16 -4 -46 3 -26 6 -53 6 -60 0 -7 9 -18 19 -24 41 -22 64 47
41 120 -6 19 -8 9 -9 -38z"/>
<path d="M2166 3630 c5 -50 4 -60 -9 -60 -16 0 -27 29 -27 72 0 15 -5 30 -11
34 -9 5 -10 -9 -5 -52 8 -66 27 -90 57 -73 21 11 22 23 13 93 -10 69 -26 56
-18 -14z"/>
<path d="M2340 3651 c0 -22 -3 -46 -6 -54 -5 -14 19 -47 34 -47 21 1 31 22 38
78 4 42 3 62 -4 62 -6 0 -12 -24 -14 -52 -2 -42 -7 -54 -22 -56 -17 -4 -18 1
-12 52 5 38 4 56 -3 56 -6 0 -11 -18 -11 -39z"/>
<path d="M2446 3623 c-5 -44 -3 -60 9 -72 31 -32 72 31 63 98 l-4 26 -7 -30
c-16 -63 -23 -80 -32 -77 -6 2 -9 27 -7 57 4 73 -13 71 -22 -2z"/>
<path d="M2055 3625 c4 -27 8 -54 8 -60 1 -5 -5 -10 -13 -10 -9 0 -20 20 -30
53 -19 66 -33 59 -15 -8 16 -61 22 -70 44 -70 33 0 40 21 28 77 -16 69 -32 82
-22 18z"/>
<path d="M2560 3618 c-6 -24 -13 -50 -16 -59 -6 -20 19 -42 43 -37 25 4 67
128 44 128 -5 0 -14 -23 -21 -50 -7 -28 -16 -53 -22 -56 -17 -11 -29 11 -20
37 17 46 22 79 13 79 -6 0 -15 -19 -21 -42z"/>
<path d="M1942 3608 c20 -63 21 -88 5 -88 -10 0 -22 19 -32 50 -9 28 -21 50
-27 50 -6 0 -7 -8 -3 -17 4 -10 12 -31 17 -48 6 -16 15 -36 21 -42 14 -18 46
-16 54 3 7 19 -24 124 -37 124 -5 0 -4 -15 2 -32z"/>
<path d="M2664 3576 c-20 -63 -14 -89 18 -84 22 3 45 38 62 96 14 45 -13 21
-30 -28 -10 -27 -24 -50 -31 -50 -17 0 -16 18 2 70 18 50 18 50 6 50 -6 0 -18
-24 -27 -54z"/>
<path d="M1820 3595 c0 -3 9 -23 20 -45 23 -46 26 -70 6 -70 -7 0 -24 24 -36
53 -13 28 -25 46 -27 39 -3 -7 6 -34 19 -60 18 -37 28 -47 48 -47 16 0 26 6
28 19 4 21 -37 116 -50 116 -4 0 -8 -2 -8 -5z"/>
<path d="M2767 3535 c-15 -30 -24 -61 -21 -69 8 -21 34 -28 51 -14 20 16 55
87 50 101 -2 7 -15 -9 -28 -35 -21 -45 -37 -57 -52 -42 -3 4 5 28 18 55 14 26
21 50 17 53 -5 3 -20 -19 -35 -49z"/>
<path d="M1720 3543 c0 -3 11 -26 26 -50 23 -40 25 -63 4 -63 -5 0 -21 20 -36
45 -14 25 -30 45 -36 45 -5 0 4 -24 21 -52 21 -38 37 -54 55 -56 39 -5 42 29
9 88 -25 44 -43 63 -43 43z"/>
<path d="M2866 3486 c-31 -53 -33 -82 -6 -91 27 -8 33 -3 69 55 38 62 23 66
-19 5 -17 -25 -35 -43 -41 -40 -14 9 -11 22 16 65 27 43 29 50 16 50 -5 0 -21
-20 -35 -44z"/>
<path d="M2100 3494 c-416 -89 -727 -409 -800 -824 -7 -36 -12 -114 -11 -175
1 -462 305 -854 757 -976 119 -33 338 -37 460 -11 129 29 241 75 342 141 215
142 352 326 429 576 25 84 27 102 27 275 0 173 -2 191 -27 275 -79 260 -242
468 -470 602 -90 53 -239 107 -337 122 -90 15 -292 12 -370 -5z m429 -39 c237
-58 457 -214 592 -418 208 -316 212 -731 12 -1057 -65 -104 -225 -262 -328
-321 -179 -104 -293 -133 -510 -133 -176 1 -246 14 -386 74 -166 70 -344 224
-441 380 -244 392 -182 901 148 1221 147 142 310 227 507 265 91 17 317 11
406 -11z"/>
<path d="M2125 3225 c-38 -9 -116 -38 -173 -66 -190 -93 -282 -216 -290 -389
-5 -100 6 -149 49 -214 63 -95 167 -130 261 -88 153 67 148 298 -7 358 -58 22
-135 15 -176 -15 -17 -13 -33 -21 -35 -18 -3 2 5 30 17 61 44 118 192 227 354
261 102 21 265 19 359 -5 152 -39 291 -133 340 -232 52 -104 24 -262 -55 -319
-84 -60 -203 -17 -216 79 -7 54 33 101 95 109 l42 6 0 50 0 50 -87 -6 c-108
-7 -148 -20 -209 -66 -195 -147 -95 -456 166 -512 42 -9 50 -14 44 -27 -4 -10
-24 -63 -45 -120 -45 -121 -66 -158 -118 -205 -54 -49 -100 -62 -216 -62 -127
0 -182 23 -255 102 -60 66 -84 136 -78 224 7 92 62 149 108 111 18 -15 21 -32
27 -165 l6 -147 191 2 191 3 3 85 c4 103 -9 150 -49 184 -35 30 -93 35 -138
11 -37 -19 -44 -35 -50 -125 l-6 -75 -35 0 -35 0 -6 110 c-8 158 -42 215 -130
215 -103 0 -181 -133 -163 -278 27 -222 180 -352 413 -352 105 0 178 19 247
66 80 54 124 125 184 291 39 111 65 143 115 143 l35 0 0 49 0 49 -77 6 c-181
14 -238 34 -290 103 -21 28 -28 49 -31 98 -5 77 9 122 48 160 36 34 44 30 29
-14 -28 -81 18 -190 99 -234 93 -50 208 -31 285 47 61 64 72 97 72 221 0 103
-2 114 -33 179 -60 127 -194 231 -367 286 -92 29 -306 37 -410 15z m-159 -499
c27 -27 34 -42 34 -75 0 -52 -15 -84 -50 -104 -62 -37 -137 -10 -166 59 -19
46 -8 89 33 124 49 44 103 42 149 -4z m356 -533 c13 -12 18 -31 18 -75 l0 -59
-42 3 -43 3 -3 58 c-4 81 25 111 70 70z"/>
<path d="M2164 2415 c-15 -23 -15 -27 0 -50 10 -15 26 -25 41 -25 15 0 31 10
41 25 15 23 15 27 0 50 -10 15 -26 25 -41 25 -15 0 -31 -10 -41 -25z"/>
<path d="M1620 3484 c0 -3 14 -25 31 -50 27 -40 31 -64 10 -64 -4 0 -23 21
-41 47 -19 26 -36 41 -38 34 -6 -17 67 -103 86 -99 8 2 20 11 25 20 9 13 4 27
-23 67 -31 45 -50 62 -50 45z"/>
<path d="M2968 3437 c-44 -58 -50 -74 -32 -91 8 -9 21 -16 29 -16 16 0 90 98
81 107 -4 4 -14 -3 -22 -16 -9 -12 -26 -34 -39 -49 -21 -24 -24 -25 -30 -10
-5 12 4 31 24 57 17 22 27 42 22 45 -5 3 -20 -9 -33 -27z"/>
<path d="M1530 3414 c0 -6 16 -29 35 -51 29 -34 32 -43 21 -52 -11 -10 -21 -4
-47 29 -30 37 -49 50 -49 33 0 -11 80 -93 90 -93 12 0 40 29 40 41 0 14 -89
107 -90 93z"/>
<path d="M3047 3355 c-20 -24 -37 -50 -37 -57 0 -15 19 -38 32 -38 16 0 88 73
88 88 0 11 -16 1 -45 -28 -38 -37 -45 -41 -51 -26 -5 12 5 29 31 56 20 21 33
40 28 43 -5 3 -26 -14 -46 -38z"/>
<path d="M1440 3334 c0 -4 19 -23 43 -44 32 -30 39 -41 30 -51 -9 -9 -21 -4
-54 25 -55 47 -64 37 -13 -15 41 -42 69 -47 88 -17 9 14 3 26 -34 63 -41 42
-60 54 -60 39z"/>
<path d="M3121 3274 c-47 -41 -53 -77 -14 -82 26 -4 117 64 107 80 -3 5 -23
-7 -45 -27 -21 -19 -43 -35 -47 -35 -25 0 -18 18 20 57 51 52 38 57 -21 7z"/>
<path d="M1370 3241 c0 -4 18 -21 40 -36 22 -15 40 -31 40 -36 0 -22 -26 -18
-64 10 -58 41 -67 27 -10 -16 50 -38 87 -41 92 -7 2 16 -10 32 -41 58 -45 37
-57 43 -57 27z"/>
<path d="M3198 3193 c-49 -36 -59 -61 -34 -82 17 -14 50 0 101 43 42 36 13 32
-37 -4 -30 -22 -45 -27 -52 -20 -11 11 20 45 60 68 9 5 15 14 13 20 -2 6 -25
-5 -51 -25z"/>
<path d="M1300 3152 c0 -4 21 -23 46 -41 33 -23 43 -36 36 -43 -8 -8 -24 -3
-56 16 -48 28 -56 31 -56 18 0 -4 24 -21 54 -37 46 -25 56 -27 70 -16 24 20
20 37 -16 64 -44 32 -78 50 -78 39z"/>
<path d="M3259 3101 c-55 -35 -64 -53 -39 -76 18 -16 22 -15 76 16 32 18 53
34 46 37 -6 2 -31 -8 -56 -23 -28 -16 -47 -22 -51 -15 -9 15 1 26 45 51 22 13
40 26 40 31 0 13 -13 9 -61 -21z"/>
<path d="M1240 3049 c0 -5 20 -19 45 -30 24 -11 47 -24 50 -29 13 -20 -24 -21
-64 -1 -44 23 -51 25 -51 13 0 -11 86 -52 110 -52 20 0 36 32 25 50 -5 9 -101
60 -112 60 -2 0 -3 -5 -3 -11z"/>
<path d="M3317 3006 c-26 -12 -52 -28 -57 -36 -10 -17 5 -50 24 -50 21 0 116
42 116 51 0 12 -2 12 -51 -11 -53 -23 -69 -25 -69 -6 0 8 24 25 52 38 29 13
48 27 43 30 -6 3 -32 -4 -58 -16z"/>
<path d="M1190 2943 c0 -4 23 -16 50 -26 29 -10 50 -24 50 -32 0 -19 -18 -19
-65 1 -20 8 -42 13 -48 11 -14 -5 77 -47 103 -47 23 0 44 25 37 45 -9 22 -127
68 -127 48z"/>
<path d="M3358 2902 c-62 -22 -73 -34 -59 -61 7 -12 17 -21 23 -21 22 0 118
34 118 42 0 11 -9 10 -62 -9 -26 -9 -50 -14 -54 -10 -15 14 7 35 50 47 25 7
46 17 46 21 0 12 -6 11 -62 -9z"/>
<path d="M1154 2831 c3 -5 28 -14 56 -21 33 -8 50 -17 50 -27 0 -16 -34 -14
-97 3 -13 4 -23 2 -23 -4 0 -13 103 -37 124 -29 9 4 16 17 16 31 0 21 -8 27
-54 40 -62 18 -80 20 -72 7z"/>
<path d="M3387 2796 c-27 -7 -53 -18 -59 -24 -13 -13 -4 -40 18 -49 21 -8 126
16 119 27 -3 5 -20 4 -38 -1 -46 -13 -77 -11 -77 5 0 9 20 19 50 26 28 7 50
16 50 21 0 11 -3 11 -63 -5z"/>
<path d="M1130 2720 c0 -5 23 -12 50 -16 52 -7 69 -19 52 -36 -6 -6 -28 -6
-61 0 -28 5 -51 6 -51 1 0 -18 107 -34 126 -18 21 18 17 48 -8 58 -40 14 -108
22 -108 11z"/>
<path d="M3455 2694 c-5 -1 -31 -5 -57 -9 -50 -6 -65 -24 -48 -56 9 -17 18
-18 68 -13 31 4 62 11 67 16 7 7 -11 8 -53 4 -58 -7 -63 -6 -60 11 2 13 16 20
52 25 26 4 50 9 53 11 6 7 -10 15 -22 11z"/>
<path d="M1115 2601 c6 -5 33 -11 60 -13 67 -4 60 -22 -10 -26 -77 -4 -69 -22
10 -22 52 0 67 4 72 16 13 33 -11 49 -78 52 -42 2 -61 0 -54 -7z"/>
<path d="M3366 2567 c-13 -10 -16 -20 -12 -35 7 -20 14 -22 72 -22 35 0 64 4
64 9 0 6 -26 9 -57 8 -46 -2 -58 1 -58 13 0 11 14 16 58 18 31 2 57 7 57 12 0
15 -104 12 -124 -3z"/>
<path d="M1110 2491 c0 -6 25 -11 55 -13 30 -2 56 -7 58 -13 1 -5 -25 -15 -58
-21 l-60 -12 61 -1 c69 -1 97 16 77 47 -11 19 -133 31 -133 13z"/>
<path d="M3362 2458 c-15 -15 -15 -33 1 -46 18 -15 127 -26 127 -13 0 6 -15
11 -34 11 -44 0 -89 17 -81 30 3 5 32 10 63 11 44 1 51 3 32 9 -39 12 -95 11
-108 -2z"/>
<path d="M1130 2380 c-32 -10 -19 -13 48 -10 41 1 52 -1 52 -13 0 -11 -15 -17
-55 -22 -30 -4 -55 -12 -55 -17 0 -8 69 -3 112 8 19 6 30 28 22 49 -7 16 -79
19 -124 5z"/>
<path d="M3347 2353 c-11 -11 -8 -40 6 -51 19 -15 117 -26 117 -13 0 6 -13 11
-29 11 -39 0 -81 16 -81 31 0 8 17 10 60 6 65 -7 83 7 23 17 -50 8 -88 8 -96
-1z"/>
<path d="M1183 2277 c-23 -7 -45 -16 -50 -21 -8 -8 4 -7 88 10 27 6 31 4 27
-12 -2 -13 -17 -22 -50 -29 -60 -13 -77 -30 -21 -21 85 13 120 39 93 71 -14
17 -29 17 -87 2z"/>
<path d="M3327 2253 c-4 -3 -7 -17 -7 -30 0 -27 26 -40 93 -48 41 -5 41 -4
-13 14 -35 12 -56 25 -59 36 -2 15 2 17 28 11 85 -17 96 -18 86 -9 -5 6 -31
15 -57 22 -54 13 -62 13 -71 4z"/>
<path d="M1218 2172 c-26 -9 -50 -20 -54 -24 -12 -13 20 -9 64 6 25 9 44 11
47 5 10 -15 -3 -27 -43 -39 -43 -14 -64 -30 -39 -30 30 0 97 32 107 51 7 13 6
22 -6 33 -18 19 -16 19 -76 -2z"/>
<path d="M3290 2139 c-8 -15 -8 -24 0 -34 15 -18 95 -48 112 -43 7 3 -11 14
-39 24 -38 13 -53 24 -53 37 0 20 11 18 77 -9 18 -7 35 -9 38 -4 5 8 -92 50
-115 50 -5 0 -14 -9 -20 -21z"/>
<path d="M1250 2064 c-64 -31 -55 -44 10 -15 24 11 48 17 52 15 17 -11 6 -25
-37 -46 -25 -12 -45 -26 -45 -30 0 -12 6 -10 60 17 39 20 50 31 50 49 0 13 -7
27 -16 30 -19 7 -10 10 -74 -20z"/>
<path d="M3250 2045 c-19 -23 -6 -42 49 -70 55 -27 61 -29 61 -17 0 5 -22 19
-50 32 -27 13 -50 27 -50 31 0 19 23 19 66 0 53 -24 54 -24 54 -13 0 10 -85
52 -104 52 -7 0 -19 -7 -26 -15z"/>
<path d="M1298 1963 c-26 -14 -45 -30 -42 -35 3 -4 24 3 48 17 49 29 66 31 66
10 0 -8 -18 -24 -39 -35 -40 -20 -61 -40 -42 -40 6 0 31 12 56 28 37 22 45 32
43 52 -4 35 -33 36 -90 3z"/>
<path d="M3202 1958 c-22 -22 -12 -47 29 -73 49 -32 69 -40 69 -29 0 5 -21 21
-45 36 -46 28 -58 48 -29 48 8 0 35 -12 60 -26 24 -14 44 -21 44 -15 0 9 -96
71 -110 71 -4 0 -11 -5 -18 -12z"/>
<path d="M1353 1868 c-23 -17 -40 -35 -37 -40 3 -5 24 5 47 22 22 16 47 30 54
30 26 0 12 -28 -27 -54 -22 -14 -40 -31 -40 -37 0 -12 12 -6 63 34 26 21 37
36 35 51 -5 33 -46 30 -95 -6z"/>
<path d="M3142 1868 c-22 -22 -12 -44 32 -76 61 -44 70 -40 16 8 -35 30 -42
41 -33 51 9 9 21 5 52 -20 23 -18 46 -31 53 -29 11 4 -82 78 -99 78 -5 0 -14
-5 -21 -12z"/>
<path d="M1427 1782 c-58 -51 -49 -63 10 -15 34 28 46 34 56 24 9 -10 2 -21
-33 -51 -25 -21 -41 -42 -37 -46 4 -5 29 13 55 39 39 39 45 50 36 65 -19 29
-39 25 -87 -16z"/>
<path d="M3072 1788 c-22 -22 -13 -46 32 -82 60 -50 69 -45 16 9 -32 33 -41
48 -33 56 8 8 22 1 52 -26 23 -21 45 -35 48 -31 8 8 -76 85 -92 86 -6 0 -16
-5 -23 -12z"/>
<path d="M1497 1695 c-21 -25 -33 -45 -27 -45 6 0 24 16 41 35 31 35 59 46 59
23 0 -7 -17 -29 -37 -50 -49 -51 -33 -62 18 -12 47 46 51 87 9 91 -19 2 -34
-8 -63 -42z"/>
<path d="M2990 1705 c-10 -12 -9 -19 4 -37 34 -49 65 -82 72 -75 4 3 -10 25
-30 47 -33 37 -39 60 -16 60 5 0 27 -19 49 -42 50 -53 54 -37 5 20 -37 44 -63
52 -84 27z"/>
<path d="M1586 1627 c-37 -45 -43 -57 -27 -57 4 0 21 18 36 40 27 39 55 53 55
27 0 -7 -14 -32 -31 -55 -39 -53 -21 -55 21 -2 36 45 37 83 4 88 -16 2 -32
-10 -58 -41z"/>
<path d="M2912 1648 c-7 -7 -12 -18 -12 -26 0 -17 60 -102 72 -102 13 0 10 8
-22 52 -34 46 -37 58 -16 58 12 0 36 -26 73 -79 2 -2 6 -2 9 2 8 8 -52 93 -71
101 -21 8 -19 8 -33 -6z"/>
<path d="M1677 1565 c-16 -24 -27 -50 -25 -57 2 -6 17 10 34 35 27 44 54 61
54 35 0 -6 -11 -31 -25 -55 -33 -55 -17 -57 19 -2 33 49 31 83 -4 87 -20 2
-31 -6 -53 -43z"/>
<path d="M2819 1584 c-11 -14 -9 -24 15 -70 16 -30 32 -54 37 -54 14 0 11 7
-17 51 -27 44 -27 82 1 59 8 -7 25 -30 37 -51 12 -21 25 -36 29 -33 4 2 -2 21
-13 42 -42 73 -63 87 -89 56z"/>
<path d="M1793 1548 c-17 -24 -46 -98 -40 -104 3 -3 17 17 31 45 15 28 30 51
36 51 16 0 21 -18 11 -37 -30 -53 -41 -83 -31 -83 6 0 22 25 36 56 19 44 22
59 13 70 -14 17 -43 18 -56 2z"/>
<path d="M2727 1543 c-18 -18 19 -133 43 -133 6 0 2 17 -10 40 -21 42 -26 80
-10 80 5 0 22 -24 36 -52 15 -29 29 -48 31 -41 7 21 -46 113 -66 113 -9 0 -21
-3 -24 -7z"/>
<path d="M1875 1465 c-28 -62 -29 -65 -16 -65 4 0 18 23 29 50 21 51 42 66 42
30 0 -11 -7 -37 -15 -57 -18 -41 -18 -43 -6 -43 13 0 43 86 39 112 -2 15 -11
24 -26 26 -19 3 -26 -6 -47 -53z"/>
<path d="M2627 1503 c-17 -16 9 -123 32 -131 7 -2 5 12 -4 38 -8 24 -15 51
-15 62 0 35 25 13 44 -40 10 -28 22 -49 27 -47 8 6 -17 92 -34 113 -10 13 -39
16 -50 5z"/>
<path d="M2003 1483 c-7 -2 -17 -23 -23 -46 -6 -23 -13 -50 -16 -59 -3 -10 -1
-18 4 -18 5 0 15 21 22 48 15 55 21 64 37 54 10 -6 9 -19 -1 -60 -8 -29 -11
-54 -6 -57 4 -3 14 22 23 55 13 53 13 62 0 75 -15 16 -20 17 -40 8z"/>
<path d="M2521 1462 c-6 -12 -6 -34 1 -63 15 -62 32 -76 23 -19 -11 67 -11 72
2 77 14 5 16 0 33 -64 6 -24 15 -43 19 -43 8 0 -11 99 -24 119 -10 17 -43 13
-54 -7z"/>
<path d="M2107 1457 c-17 -13 -39 -114 -26 -122 8 -6 14 10 24 68 4 24 11 37
21 37 14 0 15 -10 9 -62 -5 -43 -4 -60 3 -53 6 6 13 35 17 67 6 50 5 57 -13
67 -14 7 -24 7 -35 -2z"/>
<path d="M2415 1449 c-9 -14 5 -129 16 -129 5 0 6 27 2 60 -4 43 -2 60 6 60
15 0 31 -42 31 -81 0 -16 5 -29 11 -29 11 0 6 80 -7 115 -7 17 -50 20 -59 4z"/>
<path d="M2205 1440 c-13 -20 -18 -120 -7 -120 6 0 12 23 14 53 2 38 7 52 18
52 12 0 15 -12 13 -57 -1 -32 2 -58 6 -58 13 0 20 113 9 128 -13 15 -44 16
-53 2z"/>
<path d="M2312 1438 c-13 -13 -14 -69 -2 -108 6 -19 8 -12 9 32 2 95 41 89 41
-6 0 -37 3 -47 11 -39 8 8 9 29 3 70 -7 47 -13 59 -29 61 -11 1 -26 -3 -33
-10z"/>
<path d="M2647 3849 c7 -7 15 -10 18 -7 3 3 -2 9 -12 12 -14 6 -15 5 -6 -5z"/>
<path d="M2688 3843 c7 -3 16 -2 19 1 4 3 -2 6 -13 5 -11 0 -14 -3 -6 -6z"/>
<path d="M1437 3833 c-4 -3 -7 -11 -7 -17 0 -7 3 -7 8 1 4 6 28 13 52 16 l45
4 -46 1 c-25 1 -49 -1 -52 -5z"/>
<path d="M3150 3824 c13 -4 100 -160 100 -178 0 -3 -8 -7 -17 -9 -11 -3 -7 -5
10 -6 l27 -1 -20 40 c-11 21 -20 42 -20 45 0 4 16 5 36 3 35 -3 37 -5 62 -73
15 -40 28 -62 30 -52 2 10 0 23 -5 30 -5 7 -17 33 -27 60 -17 46 -18 47 -61
47 -42 0 -44 2 -67 47 -15 31 -30 48 -43 50 -11 1 -13 0 -5 -3z"/>
<path d="M1421 3788 c-1 -22 -13 -29 -68 -36 -28 -4 -48 -13 -51 -22 -4 -12
-2 -13 9 -4 12 9 143 34 181 34 5 0 8 -9 5 -20 -7 -29 -2 -25 23 17 12 20 16
32 8 26 -7 -6 -32 -13 -55 -16 -37 -4 -42 -2 -46 17 -3 14 -5 15 -6 4z"/>
<path d="M2911 3770 c0 -8 3 -20 7 -27 8 -13 137 -22 148 -10 4 4 -25 7 -65 7
-65 0 -72 2 -81 23 -5 12 -9 15 -9 7z"/>
<path d="M3118 3745 c2 -14 11 -25 18 -25 12 0 11 5 -2 25 -9 14 -17 25 -19
25 -1 0 0 -11 3 -25z"/>
<path d="M1455 3649 c-16 -33 -36 -64 -45 -69 -13 -8 -13 -9 1 -10 9 0 25 21
39 50 13 28 30 50 39 51 10 0 11 3 4 5 -7 3 -9 12 -6 20 3 8 3 14 1 14 -2 0
-17 -27 -33 -61z"/>
<path d="M3041 3693 c-1 -26 25 -43 66 -43 35 0 49 -9 56 -35 4 -18 5 -18 6 3
1 15 8 22 24 23 12 1 -14 7 -58 14 -44 8 -81 14 -82 14 -1 1 -4 11 -6 24 l-4
22 -2 -22z"/>
<path d="M1291 3688 c-1 -21 -24 -34 -74 -43 -20 -4 -37 -10 -37 -14 0 -4 37
2 83 13 45 12 72 22 60 24 -12 2 -24 11 -26 20 -4 16 -5 16 -6 0z"/>
<path d="M1371 3683 c-19 -4 -21 -7 -10 -14 12 -7 9 -22 -15 -91 -16 -46 -34
-90 -40 -98 -9 -13 -9 -13 5 -3 9 7 21 31 28 53 8 26 20 44 34 50 17 7 18 9 5
9 -17 1 -17 4 1 51 11 28 18 49 18 49 -1 -1 -13 -4 -26 -6z"/>
<path d="M3406 3611 c15 -7 25 -28 39 -88 16 -67 20 -74 25 -48 3 17 2 33 -3
36 -5 4 -15 29 -22 55 -10 40 -16 49 -36 51 -23 3 -23 2 -3 -6z"/>
<path d="M1169 3575 c-3 -25 -11 -31 -51 -44 -32 -9 -48 -20 -47 -30 0 -10 3
-11 5 -4 3 6 35 22 72 34 37 13 59 25 50 27 -9 2 -18 13 -21 25 -3 18 -4 17
-8 -8z"/>
<path d="M1262 3583 c-6 -2 -10 -9 -7 -13 3 -5 -5 -52 -19 -104 -13 -53 -20
-94 -16 -91 5 3 11 24 15 46 5 29 13 43 27 47 15 3 16 7 7 13 -10 6 -11 19 -3
58 6 28 10 51 10 50 -1 0 -7 -3 -14 -6z"/>
<path d="M3165 3579 c3 -4 27 -12 55 -19 48 -11 50 -13 50 -46 0 -28 5 -36 26
-44 37 -14 43 -11 12 6 -19 10 -28 23 -28 39 0 27 6 29 63 16 39 -9 41 -8 27
24 -7 17 -9 17 -9 3 -1 -23 -9 -23 -113 5 -48 13 -85 20 -83 16z"/>
<path d="M3505 3493 c28 -7 32 -17 41 -92 4 -36 9 -58 11 -48 5 20 12 21 47 7
25 -9 26 -13 27 -92 1 -46 4 -73 6 -60 2 12 12 22 21 22 16 1 15 2 0 11 -14 8
-18 23 -18 64 0 53 0 54 -37 66 -45 14 -53 24 -53 66 0 48 -9 63 -39 62 -21
-1 -22 -2 -6 -6z"/>
<path d="M1127 3454 c-15 -8 -37 -12 -48 -9 -13 4 -19 2 -17 -6 2 -7 -18 -23
-44 -36 -47 -22 -48 -24 -48 -67 0 -42 -3 -47 -46 -76 -25 -18 -43 -35 -39
-38 3 -4 9 -2 13 4 4 5 41 31 82 57 l75 48 3 -92 c2 -63 -1 -96 -10 -107 -11
-13 -11 -14 2 -10 10 3 16 22 18 61 3 48 6 56 25 60 21 4 21 4 -1 6 -22 1 -24
4 -20 54 l3 53 -40 -27 c-46 -31 -55 -29 -55 11 0 27 7 33 80 70 44 22 82 40
86 40 7 0 -5 -132 -16 -172 -5 -15 -5 -28 0 -28 5 0 12 25 15 55 7 51 9 55 34
56 25 2 25 2 2 6 -22 4 -23 8 -19 54 6 54 5 55 -35 33z"/>
<path d="M3357 3449 c17 -9 20 -18 16 -44 -5 -31 -3 -34 53 -64 32 -17 62 -30
67 -28 4 1 -18 16 -50 32 -47 24 -58 35 -58 55 0 21 4 25 30 23 l30 -1 -30 13
c-16 7 -41 15 -55 19 -24 6 -24 6 -3 -5z"/>
<path d="M3463 3426 c-9 -11 -8 -15 6 -19 14 -3 17 0 14 14 -6 22 -5 22 -20 5z"/>
<path d="M3561 3318 c0 -10 -9 -18 -18 -18 -17 -1 -17 -1 0 -11 23 -14 30 -7
24 23 -3 14 -5 16 -6 6z"/>
<path d="M3461 3268 c-1 -9 19 -31 44 -48 24 -17 43 -36 41 -43 -1 -6 -1 -9 1
-4 8 13 28 8 66 -18 l37 -26 0 27 c0 22 -3 24 -14 15 -11 -10 -29 -3 -88 34
-40 25 -76 53 -80 63 -6 16 -7 16 -7 0z"/>
<path d="M957 3194 c-38 -35 -50 -36 -60 -4 -2 8 -3 3 -1 -12 3 -21 -5 -34
-38 -62 -41 -33 -42 -35 -32 -73 10 -36 9 -40 -29 -79 -38 -41 -39 -42 -23
-72 22 -42 21 -49 -14 -89 -16 -18 -30 -38 -30 -44 0 -6 18 11 39 38 78 96 89
108 95 102 4 -3 18 -45 32 -94 24 -83 24 -88 7 -101 -26 -19 -36 -13 -54 35
l-16 43 -18 -29 c-16 -24 -16 -26 -2 -14 10 8 19 12 21 10 1 -2 18 -42 36 -88
25 -62 31 -88 23 -100 -19 -30 -38 -23 -59 21 l-21 42 -24 -42 c-13 -23 -29
-40 -35 -38 -7 3 -10 -3 -7 -14 3 -10 -5 -37 -18 -59 l-22 -40 27 -36 28 -36
-20 -47 -21 -47 31 -32 c30 -31 31 -34 20 -71 -17 -58 -15 -69 18 -89 22 -13
30 -25 31 -48 l1 -30 8 30 c4 17 8 41 8 55 0 16 -2 18 -5 8 -6 -23 -26 -23
-47 1 -17 19 -16 32 11 125 3 12 1 16 -7 11 -13 -8 -50 22 -50 41 0 18 62 174
69 174 4 0 31 -36 61 -80 l54 -81 -21 -20 -20 -20 -31 35 c-35 40 -42 43 -42
20 0 -8 4 -13 9 -10 5 3 37 -28 71 -69 62 -75 62 -76 45 -101 l-17 -26 -39 38
-39 38 0 -29 c0 -23 3 -26 10 -15 8 12 22 3 75 -50 36 -35 65 -71 65 -80 0
-13 1 -13 10 0 8 12 1 23 -30 52 l-41 37 16 31 c16 30 15 32 -15 69 -33 43
-37 63 -15 81 21 17 19 24 -15 72 l-30 41 20 22 c25 27 25 36 -1 87 l-21 41
25 25 25 24 -21 50 -20 50 27 22 c27 21 27 24 17 61 -16 58 -14 70 14 85 24
13 25 17 19 70 -6 56 -6 57 25 70 31 12 31 14 25 63 -6 42 -4 52 11 64 16 11
17 13 3 13 -12 0 -19 13 -23 44 -4 25 -4 49 0 55 11 18 2 12 -38 -25z m26 -26
c3 -13 7 -56 8 -96 2 -54 -2 -76 -12 -83 -27 -17 -37 -9 -48 37 l-12 47 -34
-33 c-32 -31 -33 -32 -44 -12 -20 38 -11 56 57 109 37 29 70 52 73 53 4 0 9
-10 12 -22z m-63 -125 c0 -5 7 -46 15 -92 15 -89 11 -111 -24 -111 -11 0 -21
14 -29 45 l-12 45 -34 -37 -33 -37 -16 30 -16 29 67 68 c62 63 82 77 82 60z
m-57 -536 c33 -61 40 -80 31 -94 -18 -29 -32 -25 -60 17 l-28 42 -15 -40 c-21
-54 -24 -56 -50 -28 l-22 24 41 82 c22 45 46 80 51 78 6 -2 29 -38 52 -81z"/>
<path d="M3708 3180 c2 -22 6 -40 8 -40 2 0 4 18 4 40 0 22 -3 40 -8 40 -4 0
-6 -18 -4 -40z"/>
<path d="M3530 3139 c0 -9 18 -29 40 -44 44 -31 45 -33 28 -70 -10 -23 -8 -29
27 -65 27 -28 36 -44 31 -57 -6 -14 -5 -16 5 -5 11 10 20 5 50 -24 l37 -36 7
47 c7 40 10 46 27 42 19 -5 19 -5 3 13 -16 18 -16 40 1 101 3 9 -12 27 -41 47
l-45 32 0 -50 c0 -28 -5 -50 -10 -50 -14 0 -138 98 -150 118 -8 15 -9 15 -10
1z m237 -85 c7 -20 -17 -173 -29 -180 -6 -4 -40 23 -76 59 -62 62 -65 67 -54
92 13 29 27 26 75 -19 l27 -25 0 48 c0 26 3 51 6 54 9 9 44 -11 51 -29z"/>
<path d="M3817 2902 c7 -27 -37 -182 -51 -181 -15 1 -119 128 -119 146 0 9 -4
10 -11 3 -7 -7 -2 -19 15 -37 52 -58 53 -60 30 -89 l-21 -26 31 -44 30 -44
-22 -31 -22 -31 22 -38 c26 -47 26 -62 0 -78 -23 -14 -22 -30 2 -90 13 -32 13
-35 -13 -56 l-27 -21 15 -50 c14 -48 14 -51 -6 -67 -11 -9 -25 -18 -30 -20 -7
-2 -7 -20 -1 -53 6 -31 6 -54 0 -61 -6 -8 -4 -14 6 -18 18 -6 19 18 5 79 -8
33 -6 42 7 53 29 21 40 14 53 -34 l13 -45 29 35 c34 41 44 44 53 15 4 -11 9
-18 11 -16 3 2 -1 16 -7 30 -11 24 -9 30 25 67 20 22 34 45 30 51 -3 6 -12 -1
-20 -16 -17 -32 -104 -135 -114 -135 -10 0 -52 156 -48 177 5 26 37 41 49 23
13 -17 10 -8 -23 78 -19 52 -19 54 -1 67 10 8 24 12 30 10 7 -2 -1 23 -18 57
l-31 61 22 21 c19 19 22 19 30 5 5 -9 18 -26 28 -39 16 -20 20 -21 25 -7 4 10
2 14 -6 12 -13 -5 -107 132 -107 157 0 9 7 21 16 29 14 11 20 8 48 -26 l32
-38 14 46 c7 26 16 47 20 47 3 0 16 -10 28 -23 l22 -24 -30 -73 c-17 -40 -28
-75 -25 -78 3 -3 5 -1 5 4 0 5 4 16 10 24 7 12 12 12 29 -4 28 -25 27 -35 -10
-109 -18 -34 -25 -56 -16 -49 13 11 18 9 31 -10 9 -12 16 -26 16 -31 0 -4 -23
-42 -51 -84 -48 -70 -53 -75 -65 -58 -8 10 -14 14 -14 9 0 -6 6 -18 13 -28 13
-17 15 -16 36 18 26 41 29 42 48 19 12 -16 12 -15 2 9 -10 23 -8 32 19 70 l30
44 -26 34 -26 33 27 51 27 50 -30 31 -31 32 21 48 21 48 -31 32 -32 33 16 50
c12 43 12 53 1 62 -11 9 -12 7 -8 -8z"/>
<path d="M758 2705 c8 -15 4 -28 -19 -61 -34 -50 -35 -57 -11 -75 15 -13 16
-12 3 3 -11 15 -8 26 30 85 23 38 36 62 27 56 -11 -10 -17 -10 -28 0 -10 10
-11 8 -2 -8z"/>
<path d="M3795 2419 c-4 -6 -13 -8 -21 -5 -12 5 -12 2 -3 -15 12 -23 12 -23
28 9 12 22 8 32 -4 11z"/>
<path d="M801 2254 c0 -11 3 -14 6 -6 3 7 2 16 -1 19 -3 4 -6 -2 -5 -13z"/>
<path d="M3755 2020 c-38 -38 -73 -66 -77 -64 -4 3 -8 15 -9 27 0 12 -3 16 -6
9 -3 -7 -2 -24 1 -38 l7 -25 36 30 c27 22 39 27 45 18 5 -8 8 -6 8 8 0 10 17
36 37 57 66 67 30 48 -42 -22z"/>
<path d="M3597 2013 c-4 -3 -7 -32 -7 -64 0 -46 -3 -58 -17 -62 -14 -4 -12 -5
5 -6 20 -1 22 -6 22 -52 l0 -50 37 30 c40 33 48 31 58 -10 6 -24 0 -30 -69
-73 -42 -26 -76 -50 -76 -53 0 -3 11 2 25 11 31 21 33 20 38 -6 4 -20 4 -19 6
5 1 22 11 34 46 55 44 27 44 27 39 73 -6 45 -5 47 35 75 43 31 47 40 30 64 -8
12 -9 11 -4 -6 4 -17 -8 -31 -70 -79 -42 -32 -78 -56 -80 -53 -3 3 -8 46 -12
97 -5 74 -3 95 8 102 8 5 9 9 3 9 -6 0 -14 -3 -17 -7z"/>
<path d="M890 1991 c0 -5 7 -11 15 -13 31 -6 144 -103 145 -123 0 -17 2 -18
10 -5 8 12 1 24 -32 53 -26 22 -42 44 -40 55 3 13 1 14 -9 5 -10 -10 -19 -8
-45 12 -35 27 -44 30 -44 16z"/>
<path d="M811 1968 c-1 -21 7 -33 34 -50 26 -18 35 -31 38 -58 2 -19 4 -6 4
30 0 36 -2 55 -4 43 -4 -22 -6 -22 -33 -8 -18 10 -30 25 -33 42 l-4 28 -2 -27z"/>
<path d="M3530 1851 c0 -51 -12 -90 -29 -94 -14 -4 -14 -5 2 -6 14 -1 17 -11
17 -52 0 -27 4 -48 8 -45 5 3 7 29 5 58 -3 29 0 79 5 111 5 31 5 57 0 57 -4 0
-8 -13 -8 -29z"/>
<path d="M950 1816 c0 -54 -17 -60 -55 -21 -17 16 -25 19 -25 10 0 -8 18 -24
40 -35 38 -20 40 -22 40 -70 0 -27 3 -51 8 -53 4 -3 5 39 4 94 -2 54 0 99 5
99 4 0 45 -24 91 -54 45 -30 82 -50 82 -46 0 4 -20 20 -45 34 -25 15 -45 33
-45 41 0 8 -6 12 -14 9 -7 -3 -30 5 -50 16 l-36 22 0 -46z"/>
<path d="M3457 1743 c-3 -5 -8 -29 -11 -55 -5 -36 -12 -47 -26 -50 -18 -3 -18
-4 4 -14 23 -11 24 -10 33 58 9 66 9 76 0 61z"/>
<path d="M1017 1719 c3 -11 11 -18 18 -17 7 2 49 -15 94 -37 73 -35 81 -42 81
-67 0 -32 -3 -33 -59 -13 l-41 14 6 -27 c9 -36 14 -41 14 -13 0 16 4 21 14 18
8 -3 49 -18 90 -33 71 -25 76 -29 76 -55 0 -21 -5 -29 -17 -30 -10 0 14 -10
54 -21 57 -16 73 -24 76 -41 4 -19 4 -18 6 4 1 23 -5 28 -51 40 -50 13 -53 16
-56 50 -3 33 -7 37 -50 50 -45 14 -47 17 -50 56 -3 38 -6 42 -48 58 -36 14
-44 21 -45 43 -1 17 -3 21 -6 10 -6 -24 -20 -22 -69 6 -38 21 -41 22 -37 5z"/>
<path d="M1031 1663 c0 -19 -6 -33 -13 -33 -9 0 -8 -3 2 -10 8 -5 19 -33 25
-62 7 -39 15 -53 28 -54 12 -2 13 -1 2 3 -8 2 -15 10 -16 16 -3 45 -27 166
-28 140z"/>
<path d="M3361 1593 c-6 -21 -11 -44 -11 -50 0 -7 -4 -13 -9 -13 -5 0 -8 -10
-8 -22 0 -13 -3 -38 -7 -55 -8 -35 4 -43 34 -22 13 9 13 10 -2 6 -9 -3 -18 -3
-21 -1 -2 3 6 46 19 97 13 50 21 93 19 95 -2 2 -8 -13 -14 -35z"/>
<path d="M3556 1600 c-61 -30 -81 -44 -56 -38 11 2 15 -6 15 -32 0 -34 -1 -35
-70 -60 -40 -14 -62 -26 -52 -28 14 -3 17 -11 15 -35 -3 -31 -6 -33 -83 -54
-44 -12 -70 -22 -57 -22 17 -1 22 -7 23 -28 1 -28 1 -28 10 4 8 27 16 34 52
43 23 6 47 13 54 15 6 2 13 23 15 46 3 41 4 43 53 59 49 16 50 17 53 62 3 42
6 47 43 63 22 10 42 22 45 27 7 11 6 11 -60 -22z"/>
<path d="M3430 1564 l-5 -41 25 15 c36 23 38 25 13 18 -18 -6 -22 -2 -25 21
-3 23 -5 21 -8 -13z"/>
<path d="M1131 1518 c-1 -9 -7 -19 -13 -21 -9 -4 -7 -6 3 -6 11 -1 20 -18 28
-56 11 -51 15 -55 39 -54 23 2 24 2 5 6 -16 3 -25 15 -32 41 -22 85 -29 106
-30 90z"/>
<path d="M3265 1497 c-8 -20 -15 -40 -15 -45 0 -5 -7 -15 -15 -22 -8 -7 -13
-16 -10 -20 3 -4 -2 -26 -10 -49 -14 -40 -14 -41 8 -41 17 0 19 2 8 9 -12 8
-10 22 14 88 15 43 32 84 38 91 5 7 7 15 4 19 -4 3 -14 -10 -22 -30z"/>
<path d="M1225 1440 c8 -22 12 -47 9 -55 -4 -8 -2 -15 4 -15 5 0 18 -22 28
-50 18 -49 18 -50 61 -50 41 0 44 -2 68 -50 19 -38 31 -50 48 -49 l22 0 -22 9
c-13 5 -37 38 -58 77 -19 37 -33 58 -30 46 6 -21 3 -23 -28 -23 -35 0 -35 1
-66 86 -17 47 -31 87 -31 90 0 2 10 4 22 4 27 0 21 5 -14 14 l-27 6 14 -40z"/>
<path d="M3166 1423 c-4 -4 -15 -27 -26 -50 -10 -24 -24 -43 -30 -43 -6 0 -8
-4 -5 -10 3 -5 -4 -27 -15 -50 l-20 -40 37 1 c30 2 32 3 11 6 -16 2 -28 6 -28
9 0 12 84 170 94 176 7 5 8 8 0 8 -6 0 -14 -3 -18 -7z"/>
<path d="M1330 1363 c0 -5 5 -15 10 -23 8 -13 10 -13 10 2 0 9 6 19 13 21 6 3
2 6 -10 6 -13 1 -23 -2 -23 -6z"/>
<path d="M1400 1361 c-19 -6 -7 -10 48 -15 41 -5 79 -14 87 -23 13 -13 15 -13
15 0 0 18 -21 27 -65 27 -19 0 -37 5 -40 10 -7 11 -9 11 -45 1z"/>
<path d="M3022 1300 c-28 -49 -22 -53 8 -6 11 19 31 37 43 39 20 4 20 4 -3 6
-19 1 -30 -8 -48 -39z"/>
<path d="M1542 1280 c-12 -19 -9 -20 53 -20 53 0 66 -3 75 -19 17 -33 12 -41
-29 -41 -51 0 -58 -12 -29 -50 19 -26 20 -32 8 -40 -11 -7 -8 -10 13 -10 15 0
27 -3 27 -7 0 -5 13 -23 28 -41 28 -34 28 -34 71 -21 l43 13 32 -37 c18 -20
37 -37 43 -37 6 0 -20 30 -58 67 -39 37 -67 73 -65 80 4 8 -3 13 -16 13 -20 0
-19 -3 12 -35 36 -37 34 -52 -9 -57 -19 -2 -36 12 -81 67 -32 39 -56 73 -53
78 2 4 26 7 53 7 l48 0 -21 40 c-21 38 -24 40 -69 40 -31 0 -50 5 -55 15 -7
12 -10 11 -21 -5z"/>
<path d="M1450 1276 c0 -3 10 -21 22 -41 17 -31 19 -38 7 -46 -11 -7 -10 -9 6
-9 13 0 30 -16 48 -45 21 -32 35 -45 50 -44 20 2 21 2 2 6 -23 4 -110 138
-108 165 1 10 -5 18 -13 18 -8 0 -14 -2 -14 -4z"/>
<path d="M2893 1230 c-30 -42 -42 -47 -75 -29 -17 9 -26 6 -57 -25 -40 -39
-56 -43 -85 -21 -17 13 -23 11 -63 -22 l-44 -36 -27 20 -28 20 -39 -28 c-48
-34 -53 -35 -81 -8 l-22 20 -49 -25 -50 -25 -25 25 c-24 25 -25 25 -67 8 -23
-9 -40 -18 -38 -20 2 -3 21 3 42 11 34 15 39 15 56 -1 10 -9 19 -20 19 -24 0
-4 -20 -18 -45 -32 l-46 -25 41 -18 c22 -10 40 -22 40 -28 0 -12 -31 -36 -48
-37 -15 0 -152 90 -152 101 0 4 8 13 18 18 9 6 13 10 7 10 -14 0 -62 -28 -50
-29 6 0 23 -11 39 -25 26 -21 28 -25 15 -41 -13 -16 -12 -16 9 -5 21 11 29 9
70 -18 l46 -30 33 25 32 25 50 -26 50 -25 32 27 31 27 50 -18 50 -18 32 31 31
30 50 -15 50 -14 30 34 c29 34 31 35 75 26 25 -5 48 -9 51 -10 3 0 14 16 25
35 18 34 21 35 76 35 57 0 58 0 78 40 20 39 22 40 74 40 l53 0 12 39 c6 22 19
42 29 44 9 3 1 5 -18 6 -25 1 -31 -2 -23 -10 8 -8 8 -20 2 -39 -10 -27 -13
-28 -100 -35 -50 -3 -94 -4 -97 0 -4 3 4 24 16 46 12 21 18 39 13 39 -5 0 -18
3 -28 6 -17 6 -17 6 1 -8 18 -14 18 -16 -8 -56 l-26 -42 50 0 c27 0 50 -2 50
-5 0 -2 -5 -16 -12 -31 l-12 -27 -95 7 c-52 4 -97 8 -99 11 -4 4 106 145 123
157 6 5 6 8 -2 8 -6 0 -24 -18 -40 -40z m-68 -44 c19 -14 19 -15 -8 -53 l-27
-38 45 -3 c27 -2 45 -8 45 -15 0 -24 -31 -58 -48 -53 -10 2 -50 10 -89 16 -41
7 -73 17 -73 23 0 12 119 137 130 137 4 0 15 -6 25 -14z m-135 -51 c11 -13 8
-21 -19 -49 l-32 -33 45 -12 c51 -13 53 -16 28 -48 l-17 -23 -69 20 c-39 11
-72 17 -75 15 -2 -3 1 -5 7 -5 19 0 14 -25 -8 -45 -19 -17 -22 -16 -87 10 -89
36 -105 40 -69 19 l30 -17 -29 -23 -30 -23 -78 42 c-44 24 -79 47 -79 52 0 5
36 29 81 53 79 43 83 44 101 27 11 -10 20 -21 20 -24 0 -4 -18 -17 -39 -31
-22 -13 -38 -28 -35 -32 8 -12 24 -9 24 5 0 12 138 107 156 107 5 0 18 -7 28
-15 19 -14 18 -16 -19 -49 -38 -32 -39 -33 -16 -41 12 -4 25 -4 28 -1 4 3 -2
6 -11 6 -26 0 -18 11 54 73 68 59 89 67 110 42z"/>
<path d="M3250 1260 l-35 -7 38 -2 c20 0 37 4 37 9 0 6 -1 9 -2 9 -2 -1 -19
-5 -38 -9z"/>
<path d="M1725 1205 c23 -8 85 -10 85 -3 0 4 -21 8 -47 7 -27 0 -43 -2 -38 -4z"/>
<path d="M1812 1166 c2 -14 -5 -22 -22 -28 -25 -8 5 -5 106 9 36 5 44 2 54
-17 13 -24 1 -40 -29 -40 -8 0 -12 -3 -9 -6 4 -3 37 4 76 15 86 26 94 26 111
0 11 -18 11 -23 -1 -31 -10 -7 -8 -8 5 -4 10 3 21 6 23 6 3 0 -7 15 -21 34
l-26 34 -51 -16 c-48 -14 -53 -13 -63 2 -26 45 -28 46 -79 34 -44 -9 -51 -8
-64 8 -13 18 -13 18 -10 0z"/>
<path d="M1904 1041 c37 -37 37 -39 16 -46 -12 -4 -19 -9 -17 -12 3 -2 15 0
26 7 19 9 27 6 63 -24 45 -39 53 -42 64 -24 4 7 3 8 -4 4 -13 -8 -164 113
-156 126 3 4 -3 8 -12 8 -14 0 -9 -9 20 -39z"/>
</g>
</svg>
