<svg width="38" height="43" viewBox="0 0 38 43" fill="none" xmlns="http://www.w3.org/2000/svg">
<path d="M15.1207 8.52692H23.2995C23.5304 8.52692 23.7171 8.34169 23.7171 8.11346C23.7171 6.26653 22.4656 4.69496 20.7238 4.10536C21.1915 3.6919 21.4884 3.09238 21.4884 2.42423C21.4884 1.18012 20.4666 0.167969 19.2101 0.167969C17.954 0.167969 16.9318 1.18012 16.9318 2.42423C16.9318 3.09238 17.2287 3.6919 17.6964 4.10536C15.9546 4.69496 14.7031 6.26653 14.7031 8.11346C14.7031 8.34169 14.8898 8.52692 15.1207 8.52692ZM17.7669 2.42381C17.7669 1.63576 18.4142 0.994478 19.2101 0.994478C20.0056 0.994478 20.6533 1.63576 20.6533 2.42381C20.6533 3.21146 20.0056 3.85274 19.2101 3.85274C18.4142 3.85274 17.7669 3.21187 17.7669 2.42381ZM19.2101 4.67966C21.0846 4.67966 22.633 6.00108 22.8527 7.7H15.5675C15.7868 6.00108 17.3351 4.67966 19.2101 4.67966Z" fill="black"/>
<path d="M7.40977 15.8615C7.64028 15.8615 7.82735 15.6763 7.82735 15.448V12.7837H30.5893V15.448C30.5893 15.6763 30.776 15.8615 31.0069 15.8615C31.2379 15.8615 31.4245 15.6763 31.4245 15.448V12.3702C31.4245 12.142 31.2379 11.9568 31.0069 11.9568H19.6257V9.17127C19.6257 8.94304 19.4386 8.75781 19.2081 8.75781C18.9776 8.75781 18.7906 8.94304 18.7906 9.17127V11.9568H7.40977C7.17926 11.9568 6.99219 12.142 6.99219 12.3702V15.448C6.99219 15.6763 7.17885 15.8615 7.40977 15.8615Z" fill="black"/>
<path d="M8.92654 20.1557C9.39465 19.7423 9.69155 19.1423 9.69155 18.4742C9.69155 17.2305 8.6693 16.2188 7.41322 16.2188C6.15671 16.2188 5.13447 17.2305 5.13447 18.4742C5.13447 19.1427 5.43137 19.7423 5.89948 20.1557C4.15774 20.7453 2.90625 22.3169 2.90625 24.1634C2.90625 24.3921 3.09333 24.5769 3.32383 24.5769H11.5026C11.7331 24.5769 11.9202 24.3921 11.9202 24.1634C11.9202 22.3169 10.6683 20.7453 8.92654 20.1557ZM5.96963 18.4742C5.96963 17.6865 6.61731 17.0457 7.41322 17.0457C8.20913 17.0457 8.85638 17.6865 8.85638 18.4742C8.85638 19.2622 8.20913 19.9035 7.41322 19.9035C6.61731 19.9035 5.96963 19.2618 5.96963 18.4742ZM7.41322 20.73C9.28816 20.73 10.8361 22.0515 11.0558 23.75H3.77023C3.98988 22.0515 5.53827 20.73 7.41322 20.73Z" fill="black"/>
<path d="M28.7295 18.4738C28.7295 19.1423 29.0264 19.7419 29.4941 20.1553C27.7519 20.7449 26.5 22.3165 26.5 24.1634C26.5 24.3921 26.6867 24.5769 26.9176 24.5769H35.0968C35.3277 24.5769 35.5144 24.3921 35.5144 24.1634C35.5144 22.3169 34.2629 20.7453 32.5211 20.1557C32.9892 19.7423 33.2861 19.1423 33.2861 18.4742C33.2861 17.2305 32.2639 16.2188 31.0074 16.2188C29.7513 16.2183 28.7295 17.2301 28.7295 18.4738ZM34.65 23.7495H27.3644C27.5836 22.051 29.1324 20.7296 31.0074 20.7296C32.8823 20.7296 34.4303 22.051 34.65 23.7495ZM32.451 18.4738C32.451 19.2618 31.8033 19.9031 31.0074 19.9031C30.2119 19.9031 29.5646 19.2618 29.5646 18.4738C29.5646 17.6861 30.2119 17.0453 31.0074 17.0453C31.8033 17.0453 32.451 17.6857 32.451 18.4738Z" fill="black"/>
<path d="M7.82735 31.406V26.1166C7.82735 25.8879 7.64028 25.7031 7.40977 25.7031C7.17926 25.7031 6.99219 25.8879 6.99219 26.1166V31.406C6.99219 31.6346 7.17926 31.8195 7.40977 31.8195C7.64028 31.8195 7.82735 31.6346 7.82735 31.406Z" fill="black"/>
<path d="M30.5938 26.1166V31.406C30.5938 31.6346 30.7804 31.8195 31.0113 31.8195C31.2423 31.8195 31.4289 31.6346 31.4289 31.406V26.1166C31.4289 25.8879 31.2423 25.7031 31.0113 25.7031C30.7804 25.7031 30.5938 25.8879 30.5938 26.1166Z" fill="black"/>
<path d="M8.92654 36.7565C9.39465 36.3434 9.69155 35.7439 9.69155 35.0757C9.69155 33.8321 8.6693 32.8203 7.41322 32.8203C6.15671 32.8203 5.13447 33.8321 5.13447 35.0757C5.13447 35.7439 5.43137 36.3434 5.89948 36.7565C4.15774 37.3465 2.90625 38.9185 2.90625 40.7646C2.90625 40.9932 3.09333 41.178 3.32383 41.178H11.5026C11.7331 41.178 11.9202 40.9932 11.9202 40.7646C11.9202 38.918 10.6683 37.3465 8.92654 36.7565ZM5.96963 35.0757C5.96963 34.2881 6.61731 33.6472 7.41322 33.6472C8.20913 33.6472 8.85638 34.2881 8.85638 35.0757C8.85638 35.8634 8.20913 36.5043 7.41322 36.5043C6.61731 36.5043 5.96963 35.8634 5.96963 35.0757ZM7.41322 37.3312C9.28816 37.3312 10.8361 38.6526 11.0558 40.3515H3.77023C3.98988 38.6526 5.53827 37.3312 7.41322 37.3312Z" fill="black"/>
<path d="M32.5207 36.7565C32.9884 36.343 33.2853 35.7439 33.2853 35.0757C33.2853 33.8321 32.2635 32.8203 31.0074 32.8203C29.7509 32.8203 28.7291 33.8321 28.7291 35.0757C28.7291 35.7439 29.026 36.3434 29.4936 36.7565C27.7515 37.3465 26.5 38.918 26.5 40.7646C26.5 40.9932 26.6867 41.178 26.9176 41.178H35.0968C35.3277 41.178 35.5144 40.9932 35.5144 40.7646C35.5144 38.918 34.2624 37.3465 32.5207 36.7565ZM29.5642 35.0757C29.5642 34.2881 30.2119 33.6472 31.0074 33.6472C31.8029 33.6472 32.4501 34.2881 32.4501 35.0757C32.4501 35.8634 31.8029 36.5043 31.0074 36.5043C30.2119 36.5043 29.5642 35.8634 29.5642 35.0757ZM31.0074 37.3312C32.8819 37.3312 34.4303 38.6526 34.65 40.3515H27.3644C27.584 38.6526 29.1329 37.3312 31.0074 37.3312Z" fill="black"/>
<path d="M20.0838 29.3774H19.6286V27.3754H20.0838C20.3147 27.3754 20.5014 27.1906 20.5014 26.9619C20.5014 26.7333 20.3147 26.5485 20.0838 26.5485H19.6286V26.056C19.6286 25.8274 19.4416 25.6426 19.2111 25.6426C18.9806 25.6426 18.7935 25.8274 18.7935 26.056V26.5485H18.3383C17.3203 26.5485 16.4922 27.368 16.4922 28.376C16.4922 29.384 17.3203 30.2043 18.3383 30.2043H18.7935V32.2071H18.3383C18.1078 32.2071 17.9207 32.3919 17.9207 32.6206C17.9207 32.8492 18.1078 33.034 18.3383 33.034H18.7935V33.5256C18.7935 33.7543 18.9806 33.9391 19.2111 33.9391C19.4416 33.9391 19.6286 33.7543 19.6286 33.5256V33.034H20.0838C21.1019 33.034 21.9299 32.2141 21.9299 31.2057C21.9299 30.1973 21.1015 29.3774 20.0838 29.3774ZM18.3383 29.3774C17.7808 29.3774 17.3274 28.9279 17.3274 28.376C17.3274 27.8244 17.7808 27.3754 18.3383 27.3754H18.7935V29.3774H18.3383ZM20.0838 32.2067H19.6286V30.2039H20.0838C20.6413 30.2039 21.0948 30.6533 21.0948 31.2053C21.0948 31.7573 20.6413 32.2067 20.0838 32.2067Z" fill="black"/>
<path d="M19.2103 23.75C15.8462 23.75 13.1094 26.4598 13.1094 29.7903C13.1094 33.1215 15.8462 35.8313 19.2103 35.8313C22.5747 35.8313 25.3111 33.1211 25.3111 29.7903C25.3111 26.4598 22.5747 23.75 19.2103 23.75ZM19.2103 35.0048C16.3064 35.0048 13.9445 32.6659 13.9445 29.7907C13.9445 26.9159 16.3068 24.5773 19.2103 24.5773C22.1137 24.5773 24.476 26.9159 24.476 29.7907C24.476 32.6659 22.1137 35.0048 19.2103 35.0048Z" fill="black"/>
</svg>
