<svg width="75" height="75" viewBox="0 0 75 75" fill="none" xmlns="http://www.w3.org/2000/svg">
<path d="M37.508 0C16.836 0 0 16.836 0 37.508C0 58.18 16.836 74.992 37.508 74.992C58.18 74.992 74.992 58.18 74.992 37.508C74.992 16.836 58.18 0 37.508 0ZM37.508 6.25C54.805 6.25 68.742 20.211 68.742 37.508C68.742 54.805 54.804 68.766 37.508 68.766C20.211 68.766 6.25 54.805 6.25 37.508C6.25 20.211 20.211 6.25 37.508 6.25Z" fill="black"/>
<path d="M37.5076 15.6367C30.2303 15.6367 24.2656 21.5976 24.2656 28.8787C24.2656 36.156 30.2265 42.1207 37.5076 42.1207C44.7849 42.1207 50.7496 36.1598 50.7496 28.8787C50.7496 21.6014 44.7848 15.6367 37.5076 15.6367ZM37.5076 21.8867C41.4099 21.8867 44.4959 24.9765 44.4959 28.875C44.4959 32.7773 41.4061 35.8633 37.5076 35.8633C33.6053 35.8633 30.5193 32.7735 30.5193 28.875C30.5193 24.9727 33.6091 21.8867 37.5076 21.8867Z" fill="black"/>
<path d="M30.2653 47.0117C25.6012 47.0117 21.6169 49.4336 19.0313 52.7539C16.4454 56.0781 15.0625 60.3164 15.0625 64.6329V65.879L15.0664 65.8829C15.0703 67.5977 16.4609 68.9884 18.1797 68.9962C19.0078 69.0001 19.8047 68.672 20.3945 68.09C20.9804 67.504 21.3125 66.7111 21.3164 65.883V64.6369C21.3164 61.7111 22.3281 58.6955 23.9687 56.5861C25.6093 54.4767 27.6875 53.2658 30.2656 53.2658H44.7536C47.3356 53.2658 49.3864 54.4767 51.027 56.5861C52.6676 58.6955 53.7028 61.7111 53.7028 64.6369V65.883C53.7106 67.5978 55.1012 68.9885 56.82 68.9963C57.6481 69.0002 58.445 68.6721 59.0309 68.09C59.6207 67.5041 59.9528 66.7111 59.9567 65.883V64.6369C59.9567 60.3205 58.5505 56.0822 55.9645 52.7579C53.3786 49.4337 49.4176 47.0157 44.7535 47.0157L30.2653 47.0117Z" fill="black"/>
</svg>
